<svg stroke-linejoin="round" data-testid="geist-icon" viewBox="0 0 20 16"><path fill="white" fill-rule="evenodd" d="M2.5 2.25h15c.69 0 1.25.56 1.25 1.25v9c0 .69-.56 1.25-1.25 1.25h-15c-.69 0-1.25-.56-1.25-1.25v-9c0-.69.56-1.25 1.25-1.25zM0 3.5A2.5 2.5 0 012.5 1h15A2.5 2.5 0 0120 3.5v9a2.5 2.5 0 01-2.5 2.5h-15A2.5 2.5 0 010 12.5v-9zM14.5 11V9.168c.591.281 1 .884 1 1.582V11H17v-.25c0-.786-.279-1.507-.743-2.068.45-.317.743-.84.743-1.432v-.5A1.75 1.75 0 0015.25 5H13v6h1.5zm.75-3.5h-.75v-1h.75a.25.25 0 01.25.25v.5a.25.25 0 01-.25.25zM4.5 9v2H3V5h2.25C6.216 5 7 5.784 7 6.75v.5A1.75 1.75 0 015.25 9H4.5zm0-1.5h.75a.25.25 0 00.25-.25v-.5a.25.25 0 00-.25-.25H4.5v1zM9.55 11V9h.75a1.75 1.75 0 001.75-1.75v-.5A1.75 1.75 0 0010.3 5H8.05v6h1.5zm.75-3.5h-.75v-1h.75a.25.25 0 01.25.25v.5a.25.25 0 01-.25.25z" clip-rule="evenodd"/></svg>