<svg stroke-linejoin="round" data-testid="geist-icon" viewBox="0 0 20 16"><path fill="white" fill-rule="evenodd" d="M2.5 2.25h15c.69 0 1.25.56 1.25 1.25v9c0 .69-.56 1.25-1.25 1.25h-15c-.69 0-1.25-.56-1.25-1.25v-9c0-.69.56-1.25 1.25-1.25zM0 3.5A2.5 2.5 0 012.5 1h15A2.5 2.5 0 0120 3.5v9a2.5 2.5 0 01-2.5 2.5h-15A2.5 2.5 0 010 12.5v-9zm4.25 3.375c0-.207.168-.375.375-.375H6V5H4.625a1.875 1.875 0 000 3.75.375.375 0 110 .75H3V11h1.625a1.875 1.875 0 000-3.75.375.375 0 01-.375-.375zM9 5v3.586c0 .066.026.13.073.177l.427.426.427-.426A.25.25 0 0010 8.586V5h1.5v3.586c0 .464-.184.909-.513 1.237l-.957.957-.53.53-.53-.53-.957-.957A1.75 1.75 0 017.5 8.586V5H9zm5.75 0a2.25 2.25 0 00-2.25 2.25v1.5A2.25 2.25 0 0014.75 11H16c.69 0 1.25-.56 1.25-1.25v-.5C17.25 8.56 16.69 8 16 8h-.75v1.5h-.5a.75.75 0 01-.75-.75v-1.5a.75.75 0 01.75-.75h.5a.5.5 0 01.5.5h1.5a2 2 0 00-2-2h-.5z" clip-rule="evenodd"/></svg>