<svg stroke-linejoin="round" data-testid="geist-icon" viewBox="0 0 20 16"><path fill="white" fill-rule="evenodd" d="M2.5 2.25h15c.69 0 1.25.56 1.25 1.25v9c0 .69-.56 1.25-1.25 1.25h-15c-.69 0-1.25-.56-1.25-1.25v-9c0-.69.56-1.25 1.25-1.25zM0 3.5A2.5 2.5 0 012.5 1h15A2.5 2.5 0 0120 3.5v9a2.5 2.5 0 01-2.5 2.5h-15A2.5 2.5 0 010 12.5v-9zm5 5.625V5h1.5v4.125a1.875 1.875 0 01-3.75 0V8.75h1.5v.375a.375.375 0 10.75 0zM9.25 9v2h-1.5V5H10c.966 0 1.75.784 1.75 1.75v.5A1.75 1.75 0 0110 9h-.75zm0-1.5H10a.25.25 0 00.25-.25v-.5A.25.25 0 0010 6.5h-.75v1zm5.5-2.5a2.25 2.25 0 00-2.25 2.25v1.5A2.25 2.25 0 0014.75 11H16c.69 0 1.25-.56 1.25-1.25v-.5C17.25 8.56 16.69 8 16 8h-.75v1.5h-.5a.75.75 0 01-.75-.75v-1.5a.75.75 0 01.75-.75h.5a.5.5 0 01.5.5h1.5a2 2 0 00-2-2h-.5z" clip-rule="evenodd"/></svg>