<svg stroke-linejoin="round" data-testid="geist-icon" viewBox="0 0 22 16"><path fill="white" fill-rule="evenodd" d="M19.5 2.25h-17c-.69 0-1.25.56-1.25 1.25v9c0 .69.56 1.25 1.25 1.25h17c.69 0 1.25-.56 1.25-1.25v-9c0-.69-.56-1.25-1.25-1.25zM2.5 1A2.5 2.5 0 000 3.5v9A2.5 2.5 0 002.5 15h17a2.5 2.5 0 002.5-2.5v-9A2.5 2.5 0 0019.5 1h-17zM3 4.5h1.69l.297.324L7 7.02l2.013-2.196.297-.324H11v7H9V7.798L7.737 9.176 7 9.98l-.737-.804L5 7.798V11.5H3v-7zM15 8V4.5h2V8h2.5L17 10.5l-1 1-1-1L12.5 8H15z" clip-rule="evenodd"/></svg>