<svg stroke-linejoin="round" data-testid="geist-icon" viewBox="0 0 27 14"><path fill="white" fill-rule="evenodd" d="M24 1.25H3c-.69 0-1.25.56-1.25 1.25v9c0 .69.56 1.25 1.25 1.25h21c.69 0 1.25-.56 1.25-1.25v-9c0-.69-.56-1.25-1.25-1.25zM3 0A2.5 2.5 0 00.5 2.5v9A2.5 2.5 0 003 14h21a2.5 2.5 0 002.5-2.5v-9A2.5 2.5 0 0024 0H3zm16 4h1.441l.215.386L22 6.806V4h1.5v6h-1.441l-.215-.386-1.344-2.42V10H19V4zM5.5 8.125V4H7v4.125a1.875 1.875 0 01-3.75 0V7.75h1.5v.375a.375.375 0 10.75 0zM13 6a2 2 0 012-2h.75a2 2 0 012 2v2a2 2 0 01-2 2H15a2 2 0 01-2-2V6zm2-.5a.5.5 0 00-.5.5v2a.5.5 0 00.5.5h.75a.5.5 0 00.5-.5V6a.5.5 0 00-.5-.5H15zm-5.25.375c0-.207.168-.375.375-.375H11.5V4h-1.375a1.875 1.875 0 000 3.75.375.375 0 010 .75H8.5V10h1.625a1.875 1.875 0 000-3.75.375.375 0 01-.375-.375z" clip-rule="evenodd"/></svg>