<svg stroke-linejoin="round" data-testid="geist-icon" viewBox="0 0 28 16"><path fill="white" fill-rule="evenodd" d="M2.5 2.25h23c.69 0 1.25.56 1.25 1.25v9c0 .69-.56 1.25-1.25 1.25h-23c-.69 0-1.25-.56-1.25-1.25v-9c0-.69.56-1.25 1.25-1.25zM0 3.5A2.5 2.5 0 012.5 1h23A2.5 2.5 0 0128 3.5v9a2.5 2.5 0 01-2.5 2.5h-23A2.5 2.5 0 010 12.5v-9zm10.5 3.25V8h1V6.75a.25.25 0 00-.25-.25h-.5a.25.25 0 00-.25.25zm0 4.25V9.5h1V11H13V6.75A1.75 1.75 0 0011.25 5h-.5A1.75 1.75 0 009 6.75V11h1.5zm-5 0V9h.75A1.75 1.75 0 008 7.25v-.5A1.75 1.75 0 006.25 5H4v6h1.5zm.75-3.5H5.5v-1h.75a.25.25 0 01.25.25v.5a.25.25 0 01-.25.25zM14 7.25A2.25 2.25 0 0116.25 5h.5a2 2 0 012 2h-1.5a.5.5 0 00-.5-.5h-.5a.75.75 0 00-.75.75v1.5c0 .414.336.75.75.75h.5V8h.75c.69 0 1.25.56 1.25 1.25v.5c0 .69-.56 1.25-1.25 1.25h-1.25A2.25 2.25 0 0114 8.75v-1.5zM21.75 5A1.75 1.75 0 0020 6.75v2.5c0 .966.784 1.75 1.75 1.75H24V9.5h-2.25a.25.25 0 01-.25-.25v-.515H24v-1.5h-2.5V6.75a.25.25 0 01.25-.25H24V5h-2.25z" clip-rule="evenodd"/></svg>