<svg stroke-linejoin="round" data-testid="geist-icon" viewBox="0 0 20 16"><path fill="white" fill-rule="evenodd" d="M2.5 2.25h15c.69 0 1.25.56 1.25 1.25v9c0 .69-.56 1.25-1.25 1.25h-15c-.69 0-1.25-.56-1.25-1.25v-9c0-.69.56-1.25 1.25-1.25zM0 3.5A2.5 2.5 0 012.5 1h15A2.5 2.5 0 0120 3.5v9a2.5 2.5 0 01-2.5 2.5h-15A2.5 2.5 0 010 12.5v-9zM6 5a2.25 2.25 0 00-2.25 2.25v1.5A2.25 2.25 0 006 11h1.25c.69 0 1.25-.56 1.25-1.25v-.5C8.5 8.56 7.94 8 7.25 8H6.5v1.5H6a.75.75 0 01-.75-.75v-1.5A.75.75 0 016 6.5h.5A.5.5 0 017 7h1.5a2 2 0 00-2-2H6zm5.25 6h-1.5V5h1.5v6zm2-6h-.75v6H14V9h2.5V7.5H14v-1h2.5V5h-3.25z" clip-rule="evenodd"/></svg>