<svg stroke-linejoin="round" data-testid="geist-icon" viewBox="0 0 20 16"><path fill="white" fill-rule="evenodd" d="M17.5 2.25h-15c-.69 0-1.25.56-1.25 1.25v9c0 .69.56 1.25 1.25 1.25h15c.69 0 1.25-.56 1.25-1.25v-9c0-.69-.56-1.25-1.25-1.25zM2.5 1A2.5 2.5 0 000 3.5v9A2.5 2.5 0 002.5 15h15a2.5 2.5 0 002.5-2.5v-9A2.5 2.5 0 0017.5 1h-15zm3 7V6.75a.25.25 0 01.25-.25h.5a.25.25 0 01.25.25V8h-1zm0 1.5V11H4V6.75C4 5.784 4.784 5 5.75 5h.5C7.216 5 8 5.784 8 6.75V11H6.5V9.5h-1zm5.25-.5v2h-1.5V5h2.25c.966 0 1.75.784 1.75 1.75v.5A1.75 1.75 0 0111.5 9h-.75zm0-1.5h.75a.25.25 0 00.25-.25v-.5a.25.25 0 00-.25-.25h-.75v1zM14.5 11H16V5h-1.5v6z" clip-rule="evenodd"/></svg>