<svg stroke-linejoin="round" data-testid="geist-icon" viewBox="0 0 21 16"><path fill="white" fill-rule="evenodd" d="M2.5 2.25h16c.69 0 1.25.56 1.25 1.25v9c0 .69-.56 1.25-1.25 1.25h-16c-.69 0-1.25-.56-1.25-1.25v-9c0-.69.56-1.25 1.25-1.25zM0 3.5A2.5 2.5 0 012.5 1h16A2.5 2.5 0 0121 3.5v9a2.5 2.5 0 01-2.5 2.5h-16A2.5 2.5 0 010 12.5v-9zm10.25 3.375c0-.207.168-.375.375-.375H12V5h-1.375a1.875 1.875 0 000 3.75.375.375 0 010 .75H9V11h1.625a1.875 1.875 0 000-3.75.375.375 0 01-.375-.375zM15.5 5v3.336c0 .066.026.13.073.177l.427.426.427-.426a.25.25 0 00.073-.177V5H18v3.336c0 .464-.184.909-.513 1.237l-.957.957-.53.53-.53-.53-.957-.957A1.75 1.75 0 0114 8.336V5h1.5zM5.375 5A2.375 2.375 0 003 7.375v1.25a2.375 2.375 0 104.75 0V8.5h-1.5v.125a.875.875 0 11-1.75 0v-1.25c0-.483.392-.875.875-.875H5.5a.75.75 0 01.75.75h1.5A2.25 2.25 0 005.5 5h-.125z" clip-rule="evenodd"/></svg>