<svg stroke-linejoin="round" data-testid="geist-icon" viewBox="0 0 26 16"><path fill="white" fill-rule="evenodd" d="M23.5 2.25h-21c-.69 0-1.25.56-1.25 1.25v9c0 .69.56 1.25 1.25 1.25h21c.69 0 1.25-.56 1.25-1.25v-9c0-.69-.56-1.25-1.25-1.25zM2.5 1A2.5 2.5 0 000 3.5v9A2.5 2.5 0 002.5 15h21a2.5 2.5 0 002.5-2.5v-9A2.5 2.5 0 0023.5 1h-21zM15 6.5h-1.25V5h4v1.5H16.5V11H15V6.5zm-6.5 0h1.25V11h1.5V6.5h1.25V5h-4v1.5zM3 11V5h1.5v2.25h1V5H7v6H5.5V8.75h-1V11H3zm17.5 0V9h.75A1.75 1.75 0 0023 7.25v-.5A1.75 1.75 0 0021.25 5H19v6h1.5zm.75-3.5h-.75v-1h.75a.25.25 0 01.25.25v.5a.25.25 0 01-.25.25z" clip-rule="evenodd"/></svg>