<svg stroke-linejoin="round" data-testid="geist-icon" viewBox="0 0 16 16"
width={16}
height={16}><circle cx="8" cy="8" r="7.3" fill="transparent" stroke="white" stroke-linecap="round" stroke-width="1.5"/><path fill="white" fill-rule="evenodd" d="M5 1h2v2H5V1zm0 4V3H3v2H1v2h2v2H1v2h2v2h2v2h2v-2h2v2h2v-2h2v-2h2V9h-2V7h2V5h-2V3h-2V1H9v2H7v2H5zm0 2H3V5h2v2zm2 0V5h2v2H7zm0 2V7H5v2H3v2h2v2h2v-2h2v2h2v-2h2V9h-2V7h2V5h-2V3H9v2h2v2H9v2H7zm2 0h2v2H9V9zM7 9v2H5V9h2z" clip-rule="evenodd" opacity=".3"/></svg>