<svg stroke-linejoin="round" data-testid="geist-icon" viewBox="0 0 16 16"><path fill="white" fill-rule="evenodd" d="M.75 1H0v13h5.5v-1.5h-4v-10H5a2.25 2.25 0 012.25 2.25V6.5h1.5V4.75A2.25 2.25 0 0111 2.5h3.5v4H16V1h-5a3.744 3.744 0 00-3 1.5A3.744 3.744 0 005 1H.75zm10.341 9.217a1.81 1.81 0 00.873-.967h.072c.17.453.508.78.873.967.06.032.12.066.178.104a1.81 1.81 0 001.277.273l.035.062a1.81 1.81 0 00-.402 1.24 2.007 2.007 0 010 .208c-.02.41.095.867.402 1.24l-.035.062a1.81 1.81 0 00-1.277.273 1.98 1.98 0 01-.178.104 1.81 1.81 0 00-.873.967h-.072a1.81 1.81 0 00-.873-.967 1.98 1.98 0 01-.178-.104 1.81 1.81 0 00-1.277-.273l-.035-.062a1.81 1.81 0 00.402-1.24 2.007 2.007 0 010-.208 1.81 1.81 0 00-.402-1.24l.035-.062c.478.08.932-.05 1.277-.273a1.98 1.98 0 01.178-.104zm4.313 1.19l.56-.541-1-1.732-.749.214a.548.548 0 01-.447-.076 3.252 3.252 0 00-.29-.168.548.548 0 01-.29-.349L13 8h-2l-.189.755a.548.548 0 01-.288.35c-.1.05-.197.107-.29.167a.548.548 0 01-.448.076l-.75-.214-1 1.732.561.542c.114.11.166.266.158.424a3.3 3.3 0 000 .336.547.547 0 01-.158.424l-.56.542 1 1.732.749-.214a.548.548 0 01.447.075c.094.061.19.117.29.168.141.072.25.196.29.35L11 16h2l.189-.755a.548.548 0 01.288-.35c.1-.05.197-.107.29-.168a.548.548 0 01.448-.075l.75.214 1-1.732-.561-.542a.547.547 0 01-.158-.424 3.225 3.225 0 000-.336.547.547 0 01.158-.424z" clip-rule="evenodd"/></svg>