<svg stroke-linejoin="round" data-testid="geist-icon" viewBox="0 0 16 16"
width={16}
height={16}><g clip-path="url(#clip0_4759_1928)"><path fill="white" fill-rule="evenodd" d="M9.613 1.552L8.707.646a1 1 0 00-1.414 0L5.47 2.47 4.94 3 6 4.06l.53-.53.72-.72v4.44H2.81l.72-.72.53-.53L3 4.94l-.53.53L.646 7.293a1 1 0 000 1.414L2.47 10.53l.53.53L4.06 10l-.53-.53-.72-.72h4.44v4.44l-.72-.72-.53-.53L4.94 13l.53.53 1.823 1.824a1 1 0 001.414 0l1.823-1.824.53-.53L10 11.94l-.53.53-.72.72V8.75h4.44l-.72.72-.53.53L13 11.06l.53-.53 1.824-1.823a1 1 0 000-1.414l-.906-.906a4.01 4.01 0 01-2.213-.091l.235.234.72.72H8.75V2.81l.72.72.234.235a3.996 3.996 0 01-.091-2.213z" clip-rule="evenodd"/><circle cx="13.5" cy="2.5" r="2.5" fill="#52a8ff"/></g><defs><clipPath id="clip0_4759_1928"><path fill="#fff" d="M0 0h16v16H0z"/></clipPath></defs></svg>