<svg stroke-linejoin="round" data-testid="geist-icon" viewBox="0 0 16 16"
width={16}
height={16}><path fill="white" fill-rule="evenodd" d="M13.334 5.625a12.02 12.02 0 01-.425 2.604 3.753 3.753 0 001.79-2.604h-1.365zm-1.899 3.1a3.788 3.788 0 01-.87 0 10.765 10.765 0 01-.647-3.1h2.164a10.764 10.764 0 01-.647 3.1zm1.9-4.35a12.02 12.02 0 00-.427-2.604 3.753 3.753 0 011.79 2.604h-1.364zm-1.253 0a10.764 10.764 0 00-.647-3.1 3.788 3.788 0 00-.87 0 10.765 10.765 0 00-.647 3.1h2.164zm-3.416 0c.046-.877.187-1.75.425-2.604a3.753 3.753 0 00-1.79 2.604h1.365zm.425 3.854a12.015 12.015 0 01-.425-2.604H7.302a3.753 3.753 0 001.79 2.604zM11 10a5 5 0 100-10 5 5 0 000 10zm-8.75-.5H1.5V11h2.44L.72 14.22l-.53.53 1.06 1.06.53-.53L5 12.06v2.44h1.5v-4a1 1 0 00-1-1H2.25z" clip-rule="evenodd"/></svg>