<svg stroke-linejoin="round" data-testid="geist-icon" viewBox="0 0 16 16"><path fill="white" fill-rule="evenodd" d="M.125 8A7.875 7.875 0 018 .125H8.029a7.848 7.848 0 015.22 2.005A7.859 7.859 0 0115.875 8a7.856 7.856 0 01-2.627 5.87 7.849 7.849 0 01-5.623 1.996A7.875 7.875 0 01.125 8zM8 1.375a6.625 6.625 0 00-.316 13.242 6.709 6.709 0 00.421.007c-1.18-.391-2.209-1.15-2.978-2.146-.901-1.07-1.456-2.607-1.494-4.293V7.815c.038-1.685.593-3.223 1.494-4.293.77-.995 1.798-1.755 2.978-2.146H8zm4.449 1.717a4.6 4.6 0 00-2.925-.742c.692.317 1.293.85 1.763 1.508.776 1.085 1.236 2.551 1.236 4.142 0 1.592-.46 3.058-1.236 4.143-.47.658-1.07 1.19-1.762 1.507a4.601 4.601 0 002.923-.741A6.605 6.605 0 0014.626 8a6.608 6.608 0 00-2.176-4.91zm-4.372.189c-.715 0-1.411.358-1.987 1.037-.695.82-1.174 2.073-1.208 3.519v.327c.034 1.445.513 2.697 1.209 3.518.575.68 1.272 1.038 1.986 1.038.801 0 1.585-.453 2.194-1.304.607-.85 1.002-2.055 1.002-3.416 0-1.36-.395-2.566-1.002-3.415-.609-.851-1.393-1.304-2.194-1.304z" clip-rule="evenodd"/></svg>