<svg stroke-linejoin="round" data-testid="geist-icon" viewBox="0 0 16 16"><path fill="white" fill-rule="evenodd" d="M6.027 1.594a2.206 2.206 0 013.946 0l.003.007.004.007 2.22 4.73a2.014 2.014 0 013.522 1.81 6.858 6.858 0 01-1.456 2.595l.797 1.697a2.206 2.206 0 01-3.95 1.965l-.004-.009-.005-.01-.597-1.304a8.874 8.874 0 01-4.883.035l-.551 1.26-.007.014-.007.014a2.206 2.206 0 01-3.951-1.96l.729-1.609a7.129 7.129 0 01-.955-1.31 2.014 2.014 0 012.783-2.722l2.352-5.188.005-.011.005-.01zM4.572 7.83c.343.468.851.885 1.484 1.173l1.371-3.138.56-1.28.581 1.27 1.435 3.13a3.727 3.727 0 001.484-1.222L8.852 2.147a.956.956 0 00-1.702-.003L4.572 7.83zm4.225 1.523l-.783-1.708-.75 1.714a4.972 4.972 0 001.533-.006zm-5.99 2.37l-.565 1.247-.005.011-.005.01a.956.956 0 001.703.868l.51-1.166a8.106 8.106 0 01-1.638-.97zm8.873.919l.556 1.213a.956.956 0 001.705-.863l-.004-.007-.003-.007-.625-1.333a8.11 8.11 0 01-1.63.997zm1.27-5.323a.88.88 0 011.685.504c-.792 2.65-3.522 4.484-6.627 4.484-2.644 0-4.997-1.322-6.138-3.339a.88.88 0 011.53-.866c.796 1.407 2.526 2.447 4.608 2.447 2.466 0 4.41-1.448 4.943-3.23z" clip-rule="evenodd"/></svg>