<svg stroke-linejoin="round" data-testid="geist-icon" viewBox="0 0 16 16"
width={16}
height={16}><path fill="white" fill-rule="evenodd" d="M4.745 1.932V.657l-1.008.78C1.574 3.115.202 5.868.1 8.165v.065a7.655 7.655 0 007.009 7.616 7.662 7.662 0 005.328-1.567c1.522-1.173 2.878-3.055 2.878-6.05 0-2.313-.448-3.502-.904-4.473-.049-.104-.096-.204-.143-.3-.365-.761-.643-1.342-.643-2.455h-1.25c0 .415-.176.859-.507 1.32-.33.457-.783.89-1.258 1.268a12.173 12.173 0 01-1.736 1.147l-.028.015H7.245V1.41l-1.011.795c-.475.373-1.026.873-1.489 1.31V1.933zm6.645 2.633c.482-.384.983-.849 1.387-1.375.114.287.24.55.366.81l.136.285c.39.83.786 1.839.786 3.943 0 2.549-1.126 4.085-2.391 5.06a6.412 6.412 0 01-10.325-5.06v-.022c.073-1.544.857-3.412 2.146-4.84V5h.625-.625v1.527l1.07-1.089h.001l.003-.003.012-.012.047-.048a38.465 38.465 0 01.785-.769c.182-.174.38-.36.582-.545V6H6l3 2-3.454 1.727a3 3 0 104.289-4.1l.111-.066c.391-.235.916-.575 1.444-.996z" clip-rule="evenodd"/></svg>