<svg stroke-linejoin="round" data-testid="geist-icon" viewBox="0 0 16 16"
width={16}
height={16}><path fill="white" fill-rule="evenodd" d="M8.532 11.333l-1.761 3.05a6.502 6.502 0 01-4.47-9.51l2.705 4.686a3.375 3.375 0 003.526 1.774zm2.319-1.525l-2.709 4.69a6.5 6.5 0 006.002-8.626H10.62A3.36 3.36 0 0111.375 8a3.36 3.36 0 01-.524 1.808zm-2.72-5.18h5.427A6.496 6.496 0 008 1.5c-1.962 0-3.722.87-4.914 2.245l1.76 3.049a3.376 3.376 0 013.285-2.166zM8 16A8 8 0 108 0a8 8 0 000 16zM5.875 8a2.125 2.125 0 114.25 0 2.125 2.125 0 01-4.25 0z" clip-rule="evenodd"/></svg>