<svg stroke-linejoin="round" data-testid="geist-icon" viewBox="0 0 16 16"
width={16}
height={16}><path fill="white" fill-rule="evenodd" d="M10.966 9.306a5.74 5.74 0 001.197.09c.019-.002.033-.002.042-.002.443 0 .878-.12 1.259-.345l.005-.003a2.587 2.587 0 001.281-2.23v-.014c.014-1.004-.325-1.674-.536-2.092l-.035-.069C13.101 2.551 10.73 1.25 8 1.25A6.75 6.75 0 003.96 2.59c.343-.05.69-.077 1.039-.077.268 0 1.763.016 3.194.761A5.787 5.787 0 0110.642 5.6c.54.942.614 2.044.614 2.463 0 .401-.107.834-.29 1.243zM0 7.888c.002-.122.01-.242.024-.361a3.933 3.933 0 00-.018.367 8.138 8.138 0 00.757 3.5 8 8 0 005.409 4.387h.002c.144.034.288.063.432.09h.006a8.004 8.004 0 003.925-.29 4.715 4.715 0 01-.006 0l.082-.025a8.018 8.018 0 003.517-2.417 7.954 7.954 0 00.562-.754l.003-.005a8.41 8.41 0 00.08-.124.25.25 0 00-.331-.35 5.764 5.764 0 01-.124.063l-.012.006a5.839 5.839 0 01-.527.225l-.043.016a6.316 6.316 0 01-.628.192 6.368 6.368 0 01-1.572.192c-2.957 0-5.532-2.031-5.532-4.644A1.967 1.967 0 017.031 6.25l.02-.009c.2-.095.525-.247.955-.241a2.025 2.025 0 011.607.813 1.994 1.994 0 01.39 1.332c-.024.33-.188.776-.479 1.154l-.005.007.006-.006-.006.006a.813.813 0 01-.037.035c-.069.062-.17.153-.17.309 0 .162.107.325.3.456.162.113.349.203.548.274.88.315 1.986.266 2.044.264h.002c.667 0 1.32-.18 1.894-.519A3.837 3.837 0 0016 6.819c.018-1.316-.44-2.218-.666-2.664l-.04-.08C13.962 1.487 11.106 0 8 0a8 8 0 00-8 7.888zm3.32 4.965A6.292 6.292 0 016.479 5.13l.022-.01.03-.015c.217-.103.748-.355 1.453-.354a2.73 2.73 0 00-.195-.138c-.546-.353-1.447-.674-2.929-.725-.897.007-1.786.498-2.494 1.33-.72.847-1.11 1.883-1.11 2.677v.011a6.887 6.887 0 00.64 2.96c.352.75.836 1.422 1.424 1.988zm1.543-3.831c.588 2.868 3.508 4.755 6.5 4.826-.361.207-.742.381-1.14.52l-.06.018-.012.005c-.363.116-.976.228-1.307.228-.342 0-1.555-.1-2.633-.666-.995-.523-1.856-1.414-1.856-3.172 0-.46.16-1.135.508-1.76z" clip-rule="evenodd"/></svg>