<svg stroke-linejoin="round" data-testid="geist-icon" viewBox="0 0 16 16"
width={16}
height={16}><path fill="white" fill-rule="evenodd" d="M10.802 2.305a1.25 1.25 0 001.18.41c.21-.04.385-.048.53-.031a.54.54 0 01.161.04c.195.2.389.4.58.602l-.091.228a1.25 1.25 0 00-.022.87l.32.93-.677 2.616 1.21.313-1.21-.313a621.517 621.517 0 00-.734 2.85c-.168.678-.289.995-.412 1.201-.103.173-.246.334-.612.596-.654.469-1.31.916-1.981 1.373-.311.212-.625.426-.943.645L8 14.702a3.677 3.677 0 01-.1-.067c-.319-.22-.633-.433-.944-.645-.67-.457-1.327-.904-1.981-1.373-.366-.262-.51-.423-.612-.596-.123-.206-.244-.523-.412-1.2-.066-.263-.332-1.297-.73-2.84L2.54 5.356l.32-.93a1.25 1.25 0 00-.022-.871l-.091-.228c.191-.202.385-.402.58-.601a.54.54 0 01.161-.041c.145-.017.32-.01.53.03a1.25 1.25 0 001.18-.409L6.11 1.25H9.89l.913 1.055zm2.46 8.818a4039.5 4039.5 0 011.413-5.473l.064-.248a.335.335 0 00-.007-.193l-.41-1.19.308-.768c.047-.12.023-.255-.084-.372-.322-.35-.65-.693-.983-1.032-.23-.235-.54-.361-.903-.404a2.99 2.99 0 00-.913.044L10.557.112A.322.322 0 0010.313 0H5.687a.322.322 0 00-.244.112l-1.19 1.375a2.99 2.99 0 00-.913-.044c-.362.043-.672.17-.903.404-.34.346-.675.698-1.004 1.055a.334.334 0 00-.063.349l.308.767-.41 1.191a.335.335 0 00-.007.193l.064.247.685 2.646c.4 1.546.664 2.572.728 2.828.346 1.391.62 1.874 1.509 2.51.666.478 1.343.939 2.02 1.4l.923.631c.152.105.26.172.377.227.148.07.29.109.433.109.144 0 .285-.039.433-.11.117-.054.225-.121.377-.226.307-.211.615-.42.923-.63.677-.462 1.354-.924 2.02-1.4.888-.637 1.163-1.12 1.51-2.511zm-4.157-.24c-.453-.24-1.017-.285-1.105-.285-.088 0-.652.046-1.105.284-.294.155-.535.183-.697.201-.088.01-.152.018-.189.041-.105.067-.04.193.055.262s1.38 1.08 1.504 1.193l.05.045c.12.11.273.251.382.251.109 0 .262-.14.382-.25.017-.017.034-.032.05-.046a77.714 77.714 0 011.504-1.193c.096-.069.16-.195.055-.262-.037-.023-.101-.03-.19-.04-.161-.02-.402-.047-.696-.202zm-.462-7.751A2.268 2.268 0 008.002 3H8s-.257.001-.643.132l-.235.081c-.31.109-.607.213-.76.213-.193 0-1.62-.094-1.62-.094S3.5 5.387 3.5 5.832c0 .755.35 1.108.857 1.617.12.122.25.252.385.398l.042.043c.127.13.313.321.182.639l-.028.065c-.144.343-.322.768-.095 1.198.241.458.655.763.92.713.265-.05.888-.382 1.116-.533.23-.151.955-.76.955-.994 0-.174-.448-.396-.732-.536a2.306 2.306 0 01-.207-.11c-.139-.095-.886-.1-.886-.1s-.186-.795 0-1.151c.05-.096.103-.182.152-.261.134-.217.241-.39.2-.623C6.305 5.88 6 5.832 5.5 5.832c-.622 0-.765-.555-.84-.84-.022-.09-.039-.154-.061-.165-.093-.043-.07-.085.213-.112a12.9 12.9 0 00.136-.015c.35-.037.992-.107 1.305-.018l.203.056c.35.097.781.216.823.284a.602.602 0 00.02.032c.04.057.066.095.022.338l-.072.389a42.025 42.025 0 00-.268 1.504l-.009.073c-.024.201-.04.336.19.39l.06.013c.26.06.64.15.778.15s.518-.09.778-.15l.06-.014c.23-.053.214-.188.19-.39a5.063 5.063 0 01-.009-.072c-.019-.181-.17-.986-.267-1.502a68.35 68.35 0 01-.073-.391c-.044-.243-.018-.28.021-.338a.597.597 0 00.021-.032c.042-.068.472-.187.823-.284l.203-.056c.313-.089.956-.02 1.305.018l.136.015c.282.027.306.069.213.112-.022.01-.036.073-.056.161-.065.285-.191.844-.845.844-.509 0-.944 0-1 .318-.038.216.092.404.237.615.069.098.14.202.2.316.186.356 0 1.15 0 1.15s-.78.006-.918.101a2.401 2.401 0 01-.168.096c-.258.14-.685.37-.685.55 0 .233.726.843.955.994.228.151.851.482 1.116.533.265.05.679-.255.92-.713.227-.43.049-.855-.095-1.199l-.028-.064c-.131-.318.055-.509.182-.639l.042-.043c.137-.148.27-.28.396-.405.497-.495.874-.87.874-1.61 0-.445-1.27-2.5-1.27-2.5s-1.427.094-1.62.094c-.153 0-.45-.104-.76-.213a24.728 24.728 0 00-.235-.081z" clip-rule="evenodd"/></svg>