<svg stroke-linejoin="round" data-testid="geist-icon" viewBox="0 0 16 16"
width={16}
height={16}><path fill="white" fill-rule="evenodd" d="M2.73 1.087l.186.726a5.24 5.24 0 001.275 2.3C5.108 2.82 6.474 2 8 2c1.526 0 2.892.82 3.81 2.114a5.24 5.24 0 001.276-2.301l.187-.726 1.452.374-.187.726a6.75 6.75 0 01-1.994 3.305C12.837 6.255 13 7.105 13 8h1.5v1.5h-1.658a6.56 6.56 0 01-.812 2.052l1.555.777.415.207V15h-1.5v-1.537l-1.439-.719C10.216 13.531 9.153 14 8 14s-2.215-.469-3.061-1.256l-1.439.72V15H2v-2.464l.415-.207 1.555-.777A6.558 6.558 0 013.158 9.5H1.5V8H3c0-.896.164-1.746.457-2.509a6.749 6.749 0 01-1.993-3.304l-.187-.726 1.452-.374zM4.5 8c0-.58.08-1.115.223-1.598a6.705 6.705 0 002.527.807v5.179C5.816 11.962 4.5 10.346 4.5 8zm4.25 4.388c1.434-.426 2.75-2.042 2.75-4.388 0-.58-.08-1.114-.223-1.597a6.705 6.705 0 01-2.527.806v5.179zM8.001 5.75c.96 0 1.858-.257 2.633-.707C9.95 4.06 8.955 3.5 8 3.5c-.955 0-1.95.559-2.633 1.542.774.45 1.674.708 2.634.708z" clip-rule="evenodd"/></svg>