<svg stroke-linejoin="round" data-testid="geist-icon" viewBox="0 0 16 16"><path fill="white" fill-rule="evenodd" d="M13 1.5H3V4h10V1.5zm-10 12V5.25h10v8.25a1 1 0 01-1 1H4a1 1 0 01-1-1zM3 0H1.5v13.5A2.5 2.5 0 004 16h8a2.5 2.5 0 002.5-2.5V0H3zm2.25 8a.75.75 0 100-1.5.75.75 0 000 1.5zm0 2.5a.75.75 0 100-1.5.75.75 0 000 1.5zm.75 2a.75.75 0 11-1.5 0 .75.75 0 011.5 0zM8 8a.75.75 0 100-1.5A.75.75 0 008 8zm.75 1.75a.75.75 0 11-1.5 0 .75.75 0 011.5 0zM8 13.25a.75.75 0 100-1.5.75.75 0 000 1.5zm3.5-6a.75.75 0 11-1.5 0 .75.75 0 011.5 0zm-.75 3.25a.75.75 0 100-1.5.75.75 0 000 1.5zm.75 2a.75.75 0 11-1.5 0 .75.75 0 011.5 0z" clip-rule="evenodd"/></svg>