<svg stroke-linejoin="round" data-testid="geist-icon" viewBox="0 0 16 16"><path fill="white" fill-rule="evenodd" d="M7.965 2.5c3.06 0 5.535 2.466 5.535 5.5s-2.474 5.5-5.535 5.5a5.538 5.538 0 01-4.483-2.273l-.443-.605-1.211.885.442.605A7.038 7.038 0 007.965 15C11.846 15 15 11.87 15 8s-3.154-7-7.035-7A7.038 7.038 0 001.5 5.233V3H0v4.25c0 .414.336.75.75.75H4.5V6.5H2.637a5.533 5.533 0 015.328-4zm.785 2.75V4.5h-1.5v3.366a1 1 0 00.445.832l1.389.926.624.416.832-1.248-.624-.416-1.166-.777V5.25z" clip-rule="evenodd"/></svg>