<svg stroke-linejoin="round" data-testid="geist-icon" viewBox="0 0 16 16"><path fill="white" fill-rule="evenodd" d="M0 3.5A2.5 2.5 0 012.5 1h11A2.5 2.5 0 0116 3.5v9a2.5 2.5 0 01-2.5 2.5h-11A2.5 2.5 0 010 12.5v-9zM2 7a2.25 2.25 0 012.25-2.25h1A2.25 2.25 0 017.5 7H6a.75.75 0 00-.75-.75h-1A.75.75 0 003.5 7v2c0 .414.336.75.75.75h1A.75.75 0 006 9h1.5a2.25 2.25 0 01-2.25 2.25h-1A2.25 2.25 0 012 9V7zm8.75-2.25A2.25 2.25 0 008.5 7v2a2.25 2.25 0 002.25 2.25h1A2.25 2.25 0 0014 9h-1.5a.75.75 0 01-.75.75h-1A.75.75 0 0110 9V7a.75.75 0 01.75-.75h1a.75.75 0 01.75.75H14a2.25 2.25 0 00-2.25-2.25h-1z" clip-rule="evenodd"/></svg>