<svg stroke-linejoin="round" data-testid="geist-icon" viewBox="0 0 16 16"><path fill="white" fill-rule="evenodd" d="M2.5 3.5a1 1 0 011-1h.75V1H3.5A2.5 2.5 0 001 3.5v2.794c0 .356-.118.575-.262.71-.15.14-.393.246-.738.246v1.5c.345 0 .588.107.738.247.144.134.262.353.262.708V12.5A2.5 2.5 0 003.5 15h.75v-1.5H3.5a1 1 0 01-1-1V9.705c0-.67-.221-1.264-.638-1.705.417-.441.638-1.035.638-1.706V3.5zm10-2.5h-.75v1.5h.75a1 1 0 011 1v2.794c0 .67.221 1.265.638 1.706-.417.441-.638 1.035-.638 1.705V12.5a1 1 0 01-1 1h-.75V15h.75a2.5 2.5 0 002.5-2.5V9.705c0-.355.118-.574.262-.708.15-.14.394-.247.738-.247v-1.5c-.344 0-.588-.107-.738-.247-.144-.134-.262-.353-.262-.709V3.5A2.5 2.5 0 0012.5 1zm-3.75 9.25V9.5h-1.5v3.099c0 .44-.13.87-.374 1.235l-.416.624 1.248.832.416-.624a3.727 3.727 0 00.626-2.067V10.25zM8 7a1.25 1.25 0 100-2.5A1.25 1.25 0 008 7z" clip-rule="evenodd"/></svg>