<svg stroke-linejoin="round" data-testid="geist-icon" viewBox="0 0 16 16"><path fill="white" fill-rule="evenodd" d="M8 .1l.406.261 7.25 4.67.344.221V10.74l-.344.221-7.25 4.67-.406.261-.406-.261-7.25-4.67L0 10.74V5.252l.344-.222L7.594.361 8 .099zM1.5 9.16l1.748-1.164L1.5 6.83v2.33zm.565-3.454l2.31 1.539 3-2V2.287l-5.31 3.42zm9.56 1.539l-3-2V2.287l5.31 3.42-2.31 1.539zM14.5 6.83l-1.748 1.165L14.5 9.16V6.831zm-4.002 1.165L8 6.332 5.502 7.996 8 9.66l2.498-1.664zm-3.123 2.75l-3-2-2.31 1.54 5.31 3.42v-2.96zm1.25 2.96l5.31-3.42-2.31-1.54-3 2v2.96z" clip-rule="evenodd"/></svg>