<svg stroke-linejoin="round" data-testid="geist-icon" viewBox="0 0 16 16"
width={16}
height={16}><path fill="white" fill-rule="evenodd" d="M14.866 14.704A50.231 50.231 0 0012 14.392v-1.504c.835.064 1.668.15 2.5.255V9H16v5.86l-.852-.117-.282-.039zM16 7V1.64l-.852.117-.282.039A50.25 50.25 0 0112 2.108v1.504a51.76 51.76 0 002.5-.255V7H16zm-6-4.773v1.501a51.749 51.749 0 01-4 0v-1.5c1.333.052 2.667.052 4 0zm0 12.046V12.77a51.699 51.699 0 00-4 0v1.502a50.24 50.24 0 014 0zm-6 .12c-.957.076-1.913.18-2.866.311l-.282.039L0 14.86V9h1.5v4.143c.832-.106 1.665-.19 2.5-.255v1.504zM1.5 7V3.357c.832.106 1.665.19 2.5.255V2.108a50.254 50.254 0 01-2.866-.312l-.282-.039L0 1.639V7h1.5z" clip-rule="evenodd"/></svg>