<svg stroke-linejoin="round" data-testid="geist-icon" viewBox="0 0 16 16"
width={16}
height={16}><path fill="white" fill-rule="evenodd" d="M16 8A8 8 0 110 8a8 8 0 0116 0zM8.625 3.375v1H9c1.174 0 2.125.951 2.125 2.125h-1.25A.875.875 0 009 5.625h-.375v1.75H9a2.125 2.125 0 010 4.25h-.375v1h-1.25v-1H7A2.125 2.125 0 014.875 9.5h1.25c0 .483.392.875.875.875h.375v-1.75H7a2.125 2.125 0 010-4.25h.375v-1h1.25zm-1.25 2.25H7a.875.875 0 100 1.75h.375v-1.75zm1.25 3v1.75H9a.875.875 0 100-1.75h-.375z" clip-rule="evenodd"/></svg>