<svg stroke-linejoin="round" data-testid="geist-icon" viewBox="0 0 16 16"
width={16}
height={16}><svg xmlns="http://www.w3.org/2000/svg" fill="none" viewBox="0 0 16 16"
width={16}
height={16}><g clip-path="url(#clip0_3394_1494)"><circle cx="8" cy="6" r="1.3" fill="white"/><path stroke="white" stroke-linecap="square" stroke-width="1.5" d="M8 10.5v2.349c0 .587-.174 1.162-.5 1.651m-4 0a1.75 1.75 0 01-1.75-1.75V9.955C1.75 8.878 1 8.25 0 8.25c1 0 1.75-.628 1.75-1.706V3.75C1.75 2.784 2.534 2 3.5 2m9 0c.966 0 1.75.784 1.75 1.75v2.794c0 1.078.75 1.706 1.75 1.706-1 0-1.75.628-1.75 1.706v2.794a1.75 1.75 0 01-1.75 1.75"/></g><defs><clipPath id="clip0_3394_1494"><path fill="white" d="M0 0h16v16H0z"/></clipPath></defs></svg></svg>