<svg stroke-linejoin="round" data-testid="geist-icon" viewBox="0 0 16 16"
width={16}
height={16}><path fill="white" fill-rule="evenodd" d="M8.5 1S4.586 4.748 3.941 5.397a.234.234 0 00-.027.298c.064.094.186.13.292.086l3.7-1.508 3.869 6.087c.066.104.2.141.312.087a.235.235 0 00.116-.298C11.71 8.905 8.5 1 8.5 1zM6.293 7.039a.234.234 0 00-.067-.311.244.244 0 00-.322.035C5.124 7.633 0 13.5 0 13.5s5.186 1.303 6.03 1.494a.242.242 0 00.274-.132.234.234 0 00-.076-.29l-3.066-2.229L6.293 7.04zm7.761 1.55a.241.241 0 00-.469.077v3.716l-7.132.138a.24.24 0 00-.236.22.238.238 0 00.202.25C7.682 13.193 16 14.573 16 14.573s-1.669-5.183-1.946-5.984z" clip-rule="evenodd"/></svg>