<svg stroke-linejoin="round" data-testid="geist-icon" viewBox="0 0 16 16"><path fill="white" fill-rule="evenodd" d="M.191 2.062l.56.499 13.5 12 .561.498.997-1.121-.56-.499-1.81-1.607 2.88-3.343v-.978l-3.204-3.72C10.645.92 6.365.685 3.594 3.08L1.748 1.44 1.188.94.19 2.062zM14.761 8l-2.442 2.835-1.65-1.465a3.001 3.001 0 00-4.342-3.86l-1.6-1.422a5.253 5.253 0 017.251.681L14.76 8zM7.526 6.576l1.942 1.727a1.499 1.499 0 00-1.942-1.727zm-7.845.935l1.722-2 1.137.978L1.24 8l2.782 3.23A5.251 5.251 0 009.9 12.703l.54 1.399a6.75 6.75 0 01-7.555-1.892L-.318 8.49v-.978z" clip-rule="evenodd"/></svg>