<svg stroke-linejoin="round" data-testid="geist-icon" viewBox="0 0 16 16"><path fill="white" fill-rule="evenodd" d="M6.514 3.158a5.293 5.293 0 012.972 0l.422-1.44a6.793 6.793 0 00-3.816 0l.422 1.44zm4.334.624c.41.265.791.594 1.13.987l1.068 1.24 1.137-.978-1.068-1.24a6.764 6.764 0 00-1.452-1.269l-.815 1.26zm-6.826.987c.339-.393.72-.722 1.13-.987l-.815-1.26a6.762 6.762 0 00-1.452 1.269L1.817 5.03l1.137.978 1.068-1.24zm10.092 2.48L14.76 8l-.646.75 1.136.98 1.068-1.24v-.98L15.25 6.27l-1.136.98zm-12.228 0L1.24 8l.646.75-1.137.98-1.067-1.24v-.98L.749 6.27l1.137.98zm11.16 2.742l-1.068 1.24c-.339.393-.72.722-1.13.987l.815 1.26a6.76 6.76 0 001.452-1.269l1.068-1.24-1.137-.978zm-9.024 1.24L2.954 9.99l-1.137.978 1.068 1.24a6.76 6.76 0 001.452 1.269l.815-1.26a5.262 5.262 0 01-1.13-.987zm5.886 3.05l-.422-1.439a5.293 5.293 0 01-2.972 0l-.422 1.44a6.793 6.793 0 003.816 0zM6.5 8a1.5 1.5 0 113 0 1.5 1.5 0 01-3 0zM8 5a3 3 0 100 6 3 3 0 000-6z" clip-rule="evenodd"/></svg>