<svg stroke-linejoin="round" data-testid="geist-icon" viewBox="0 0 16 16"
width={16}
height={16}><path fill="var(--ds-blue-700)" fill-rule="evenodd" d="M4 9v7h1.5V9H4zm8 0v7h-1.5V9H12z" clip-rule="evenodd"/><path fill="white" fill-rule="evenodd" d="M1.5 8A6.5 6.5 0 1113 12.154v2.091a8 8 0 10-10 0v-2.091A6.474 6.474 0 011.5 8zM8 14.5a6.52 6.52 0 001.5-.174v1.534a8.04 8.04 0 01-3 0v-1.534A6.52 6.52 0 008 14.5zM3.786 8.365c.373-.38.89-.615 1.464-.615s1.091.235 1.464.615l1.072-1.05A3.542 3.542 0 005.25 6.25c-.993 0-1.892.409-2.536 1.065l1.072 1.05zm6.964-.615c-.574 0-1.091.235-1.464.615l-1.072-1.05A3.542 3.542 0 0110.75 6.25c.993 0 1.892.409 2.536 1.065l-1.072 1.05a2.041 2.041 0 00-1.464-.615zM6.25 12h3.5a1.75 1.75 0 10-3.5 0z" clip-rule="evenodd"/></svg>