<svg stroke-linejoin="round" data-testid="geist-icon" viewBox="0 0 16 16"
width={16}
height={16}><path fill="white" fill-rule="evenodd" d="M12.375 5.375v-1.75h-1.75v-1.25h1.75V.625h1.25v1.75h1.75v1.25h-1.75v1.75h-1.25zM7.5 2.5a6 6 0 105.826 4.56l1.457-.36A7.5 7.5 0 119.3 1.218l-.36 1.457A6.016 6.016 0 007.5 2.5zM4.788 9.894l.395.485a2.982 2.982 0 002.318 1.101c.935 0 1.769-.428 2.318-1.101l.395-.485.969.79-.395.484A4.232 4.232 0 017.5 12.73c-1.326 0-2.51-.61-3.287-1.562l-.395-.484.97-.79zM5.5 8a1 1 0 100-2 1 1 0 000 2zm5-1a1 1 0 11-2 0 1 1 0 012 0z" clip-rule="evenodd"/></svg>