<svg stroke-linejoin="round" data-testid="geist-icon" viewBox="0 0 16 16"><g clip-path="url(#clip0_4628_1818)"><path fill="white" fill-rule="evenodd" d="M15.093 7.649A7.416 7.416 0 002.65 2.674l1.02 1.099a5.916 5.916 0 019.927 3.97c.067 1.07.464 2.36 1.538 3.087l.84-1.242c-.52-.352-.827-1.083-.88-1.939zM1.22 4.489a7.385 7.385 0 00-.93 4.085c.125 1.99.411 3.96.853 5.892l1.463-.335a35.154 35.154 0 01-.818-5.65 5.885 5.885 0 01.74-3.258L1.22 4.49zM11.931 8.15a4.152 4.152 0 00-8.287.518c.045.73.116 1.455.21 2.177l1.488-.195a30.63 30.63 0 01-.201-2.076 2.652 2.652 0 015.293-.33c.039.613.1 1.224.182 1.83l1.486-.202a23.778 23.778 0 01-.17-1.722zm1.071 5.725a23.857 23.857 0 01-.623-2.384l-1.469.304c.165.796.368 1.584.608 2.36l1.484-.28zM14.65 24.82l-3.8.748a4.141 4.141 0 003.8-.748zm-9.852-9.4a32.14 32.14 0 01-.649-2.743l1.474-.28a30.606 30.606 0 00.655 2.744l-1.48.279zm3.319-.625l-.039-.13v-.004a29.988 29.988 0 01-1.135-6.504.75.75 0 011.497-.093c.131 2.1.494 4.171 1.077 6.177v.001l.081.273-1.481.28z" clip-rule="evenodd"/></g><defs><clipPath id="clip0_4628_1818"><path fill="#fff" d="M0 0h16v16H0z"/></clipPath></defs></svg>