<svg stroke-linejoin="round" data-testid="geist-icon" viewBox="0 0 16 16"><g clip-path="url(#clip0_4628_1900)"><mask id="a" fill="#fff"><path fill-rule="evenodd" d="M1.25 0C.56 0 0 .56 0 1.25v11c0 .69.56 1.25 1.25 1.25H4.5V12h-3V9.5H6v-4h10V1.25C16 .56 15.44 0 14.75 0H1.25zM4.5 8h-3V5.5h3V8zm-3-4h3V1.5h-3V4zM6 4V1.5h4V4H6zm5.5 0h3V1.5h-3V4zm1.73 8c-.03.815-.136 1.628-.318 2.428a3.254 3.254 0 001.8-2.428H13.23zm-1.425 2.736a3.299 3.299 0 01-.61 0A12.24 12.24 0 0110.77 12h1.46a12.24 12.24 0 01-.425 2.736zM13.23 11a13.233 13.233 0 00-.319-2.428 3.254 3.254 0 011.8 2.428H13.23zm-1.001 0a12.24 12.24 0 00-.425-2.736 3.289 3.289 0 00-.61 0A12.24 12.24 0 0010.77 11h1.46zm-2.46 0c.03-.815.136-1.628.318-2.428A3.254 3.254 0 008.288 11H9.77zm.318 3.428c-.182-.8-.288-1.613-.319-2.428H8.29a3.254 3.254 0 001.799 2.428zM11.5 16a4.5 4.5 0 100-9 4.5 4.5 0 000 9z" clip-rule="evenodd"/></mask><path fill="white" fill-rule="evenodd" d="M1.25 0C.56 0 0 .56 0 1.25v11c0 .69.56 1.25 1.25 1.25H4.5V12h-3V9.5H6v-4h10V1.25C16 .56 15.44 0 14.75 0H1.25zM4.5 8h-3V5.5h3V8zm-3-4h3V1.5h-3V4zM6 4V1.5h4V4H6zm5.5 0h3V1.5h-3V4zm1.73 8c-.03.815-.136 1.628-.318 2.428a3.254 3.254 0 001.8-2.428H13.23zm-1.425 2.736a3.299 3.299 0 01-.61 0A12.24 12.24 0 0110.77 12h1.46a12.24 12.24 0 01-.425 2.736zM13.23 11a13.233 13.233 0 00-.319-2.428 3.254 3.254 0 011.8 2.428H13.23zm-1.001 0a12.24 12.24 0 00-.425-2.736 3.289 3.289 0 00-.61 0A12.24 12.24 0 0010.77 11h1.46zm-2.46 0c.03-.815.136-1.628.318-2.428A3.254 3.254 0 008.288 11H9.77zm.318 3.428c-.182-.8-.288-1.613-.319-2.428H8.29a3.254 3.254 0 001.799 2.428zM11.5 16a4.5 4.5 0 100-9 4.5 4.5 0 000 9z" clip-rule="evenodd"/><path fill="white" d="M4.5 13.5V15L6 13.5H4.5zm0-1.5H6l-1.5-1.5V12zm-3 0H0l1.5 1.5V12zm0-2.5V8L0 9.5h1.5zm4.5 0V11l1.5-1.5H6zm0-4V4L4.5 5.5H6zm10 0V7l1.5-1.5H16zM1.5 8H0l1.5 1.5V8zm3 0v1.5L6 8H4.5zm-3-2.5V4L0 5.5h1.5zm3 0H6L4.5 4v1.5zm0-1.5v1.5L6 4H4.5zm-3 0H0l1.5 1.5V4zm3-2.5H6L4.5 0v1.5zm-3 0V0L0 1.5h1.5zm4.5 0V0L4.5 1.5H6zM6 4H4.5L6 5.5V4zm4-2.5h1.5L10 0v1.5zM10 4v1.5L11.5 4H10zm4.5 0v1.5L16 4h-1.5zm-3 0H10l1.5 1.5V4zm3-2.5H16L14.5 0v1.5zm-3 0V0L10 1.5h1.5zM13.23 12v-1.5l-1.498 1.443L13.23 12zm-.318 2.428l-1.463-.332 2.116 1.682-.653-1.35zm1.8-2.428l1.482.229-1.482-1.729V12zm-2.907 2.736l.139 1.494 1.307-1.098-1.446-.396zm-.61 0l-1.446.396 1.307 1.098.14-1.494zM10.77 12v-1.5l-1.499 1.561L10.77 12zm1.46 0l1.499.061L12.23 10.5V12zm.682-3.428l.653-1.35-2.115 1.682 1.462-.332zM13.231 11l-1.5.057 1.5 1.443V11zm1.48 0v1.5l1.483-1.729-1.482.229zm-2.481 0v1.5l1.499-1.561L12.23 11zm-.425-2.736l1.446-.396-1.307-1.097-.14 1.493zm-.61 0l-.139-1.493L9.75 7.868l1.446.396zM10.77 11l-1.499-.061L10.77 12.5V11zm-.682-2.428l1.463.332-2.116-1.682.653 1.35zM9.769 11v1.5l1.5-1.443-1.5-.057zm-1.48 0l-1.483-.229L8.288 12.5V11zm1.48 1l1.5-.057-1.5-1.443V12zm.319 2.428l-.653 1.35 2.115-1.682-1.462.332zM8.288 12v-1.5l-1.482 1.729L8.288 12zM1.5 1.25a.25.25 0 01-.25.25v-3A2.75 2.75 0 00-1.5 1.25h3zm0 11v-11h-3v11h3zM1.25 12a.25.25 0 01.25.25h-3A2.75 2.75 0 001.25 15v-3zm3.25 0H1.25v3H4.5v-3zM3 12v1.5h3V12H3zm-1.5 1.5h3v-3h-3v3zM0 9.5V12h3V9.5H0zM5.25 8H1.5v3h3.75V8zM6 8h-.75v3H6V8zm-1.5.75v.75h3v-.75h-3zm0-3.25v3.25h3V5.5h-3zM15.25 4H6v3h9.25V4zM16 4h-.75v3H16V4zm-1.5.75v.75h3v-.75h-3zm0-3.5v3.5h3v-3.5h-3zm.25.25a.25.25 0 01-.25-.25h3a2.75 2.75 0 00-2.75-2.75v3zm-13.5 0h13.5v-3H1.25v3zm.25 8h3v-3h-3v3zM0 5.5V8h3V5.5H0zM4.5 4h-3v3h3V4zM6 8V5.5H3V8h3zM4.5 2.5h-3v3h3v-3zM3 1.5V4h3V1.5H3zM1.5 3h3V0h-3v3zM3 4V1.5H0V4h3zm1.5-2.5V4h3V1.5h-3zM10 0H6v3h4V0zm1.5 4V1.5h-3V4h3zM6 5.5h4v-3H6v3zm8.5-3h-3v3h3v-3zm-1.5-1V4h3V1.5h-3zM11.5 3h3V0h-3v3zM13 4V1.5h-3V4h3zm-1.268 7.943a11.737 11.737 0 01-.282 2.153l2.925.664c.202-.891.32-1.796.355-2.703l-2.998-.114zm1.497-.172a1.753 1.753 0 01-.97 1.306l1.306 2.701a4.754 4.754 0 002.63-3.55l-2.966-.457zm.002 1.729h1.48v-3h-1.48v3zm-1.565-.258a1.77 1.77 0 01-.166.008v3c.15 0 .297-.007.444-.02l-.278-2.988zm-.166.008a1.77 1.77 0 01-.166-.008l-.278 2.988c.147.013.295.02.444.02v-3zm1.142 1.09a10.737 10.737 0 01-.373-2.401l-2.998.122a13.74 13.74 0 00.478 3.072l2.893-.794zm-1.872-.84h1.46v-3h-1.46v3zm2.481 1.633c.276-1.007.436-2.038.478-3.072l-2.998-.122a10.737 10.737 0 01-.373 2.4l2.893.793zm-1.801-6.23c.16.71.255 1.431.282 2.154l2.998-.114a14.74 14.74 0 00-.355-2.703l-2.925.664zm4.744 1.868a4.754 4.754 0 00-2.629-3.55L12.26 9.924c.51.246.88.733.97 1.306l2.964-.458zM13.231 12.5h1.48v-3h-1.48v3zm.498-1.561a13.734 13.734 0 00-.478-3.071l-2.893.793c.216.787.34 1.592.373 2.4l2.998-.122zM11.944 6.77a4.788 4.788 0 00-.444-.021v3c.056 0 .112.003.166.008l.278-2.987zM11.5 6.75c-.15 0-.297.007-.444.02l.278 2.988a1.79 1.79 0 01.166-.008v-3zM9.749 7.868a13.739 13.739 0 00-.478 3.07l2.998.123c.033-.808.157-1.613.373-2.4l-2.893-.793zM10.77 12.5h1.46v-3h-1.46v3zM8.625 8.24c-.202.891-.32 1.796-.355 2.703l2.998.114c.027-.723.122-1.444.282-2.153L8.625 8.24zM9.77 11.23c.088-.573.458-1.06.97-1.306L9.434 7.222a4.754 4.754 0 00-2.63 3.55l2.966.457zM9.769 9.5H8.29v3h1.48v-3zM8.27 12.057c.035.907.153 1.812.355 2.703l2.925-.664c-.16-.71-.255-1.43-.282-2.153l-2.998.114zm.018 1.443H9.77v-3H8.29v3zm2.452-.423a1.754 1.754 0 01-.97-1.306l-2.964.458a4.754 4.754 0 002.629 3.55l1.305-2.702zM14.5 11.5a3 3 0 01-3 3v3a6 6 0 006-6h-3zm-3-3a3 3 0 013 3h3a6 6 0 00-6-6v3zm-3 3a3 3 0 013-3v-3a6 6 0 00-6 6h3zm3 3a3 3 0 01-3-3h-3a6 6 0 006 6v-3z" mask="url(#a)"/></g><defs><clipPath id="clip0_4628_1900"><path fill="#fff" d="M0 0h16v16H0z"/></clipPath></defs></svg>