<svg stroke-linejoin="round" data-testid="geist-icon" viewBox="0 0 16 16"
width={16}
height={16}><g clip-path="url(#clip0_4629_2028)"><mask id="a" fill="#fff"><path fill-rule="evenodd" d="M0 1.25C0 .56.56 0 1.25 0h13.5C15.44 0 16 .56 16 1.25V5.5H6v4H1.5V12h3v1.5H1.25C.56 13.5 0 12.94 0 12.25v-11zM1.5 8h3V5.5h-3V8zm3-4h-3V1.5h3V4zM6 1.5V4h4V1.5H6zM14.5 4h-3V1.5h3V4zm1.5 7.5a4.5 4.5 0 11-9 0 4.5 4.5 0 019 0zm-1.714-1.137l-.442.442-2.603 2.603a.875.875 0 01-1.238 0l-.847-.847-.442-.442.884-.884.442.442.582.582 2.338-2.338.442-.442.884.884z" clip-rule="evenodd"/></mask><path fill="white" fill-rule="evenodd" d="M0 1.25C0 .56.56 0 1.25 0h13.5C15.44 0 16 .56 16 1.25V5.5H6v4H1.5V12h3v1.5H1.25C.56 13.5 0 12.94 0 12.25v-11zM1.5 8h3V5.5h-3V8zm3-4h-3V1.5h3V4zM6 1.5V4h4V1.5H6zM14.5 4h-3V1.5h3V4zm1.5 7.5a4.5 4.5 0 11-9 0 4.5 4.5 0 019 0zm-1.714-1.137l-.442.442-2.603 2.603a.875.875 0 01-1.238 0l-.847-.847-.442-.442.884-.884.442.442.582.582 2.338-2.338.442-.442.884.884z" clip-rule="evenodd"/><path fill="white" d="M16 5.5V7l1.5-1.5H16zm-10 0V4L4.5 5.5H6zm0 4V11l1.5-1.5H6zm-4.5 0V8L0 9.5h1.5zm0 2.5H0l1.5 1.5V12zm3 0H6l-1.5-1.5V12zm0 1.5V15L6 13.5H4.5zm0-5.5v1.5L6 8H4.5zm-3 0H0l1.5 1.5V8zm3-2.5H6L4.5 4v1.5zm-3 0V4L0 5.5h1.5zm0-1.5H0l1.5 1.5V4zm3 0v1.5L6 4H4.5zm-3-2.5V0L0 1.5h1.5zm3 0H6L4.5 0v1.5zM6 4H4.5L6 5.5V4zm0-2.5V0L4.5 1.5H6zM10 4v1.5L11.5 4H10zm0-2.5h1.5L10 0v1.5zM11.5 4H10l1.5 1.5V4zm3 0v1.5L16 4h-1.5zm-3-2.5V0L10 1.5h1.5zm3 0H16L14.5 0v1.5zm-.656 9.305l1.06 1.06-1.06-1.06zm.442-.442l1.06 1.06v-2.12l-1.06 1.06zm-3.045 3.045l-1.06-1.06 1.06 1.06zm-1.238 0l-1.06 1.061 1.06-1.06zm-.847-.847l1.06-1.06-1.06 1.06zm-.442-.442l-1.06-1.06v2.12l1.06-1.06zm.884-.884l1.06-1.06H8.537l1.06 1.06zm.442.442l-1.061 1.06 1.06-1.06zm.582.582l-1.06 1.061h2.12l-1.06-1.06zm2.338-2.338l-1.06-1.06 1.06 1.06zm.442-.442l1.06-1.06h-2.12l1.06 1.06zM1.25-1.5A2.75 2.75 0 00-1.5 1.25h3a.25.25 0 01-.25.25v-3zm13.5 0H1.25v3h13.5v-3zm2.75 2.75a2.75 2.75 0 00-2.75-2.75v3a.25.25 0 01-.25-.25h3zm0 3.5v-3.5h-3v3.5h3zm0 .75v-.75h-3v.75h3zM15.25 7H16V4h-.75v3zM6 7h9.25V4H6v3zm1.5 1.75V5.5h-3v3.25h3zm0 .75v-.75h-3v.75h3zM5.25 11H6V8h-.75v3zM1.5 11h3.75V8H1.5v3zM3 12V9.5H0V12h3zm1.5-1.5h-3v3h3v-3zm1.5 3V12H3v1.5h3zM1.25 15H4.5v-3H1.25v3zm-2.75-2.75A2.75 2.75 0 001.25 15v-3a.25.25 0 01.25.25h-3zm0-11v11h3v-11h-3zm6 5.25h-3v3h3v-3zM3 5.5V8h3V5.5H3zM1.5 7h3V4h-3v3zM3 8V5.5H0V8h3zM1.5 5.5h3v-3h-3v3zM0 1.5V4h3V1.5H0zM4.5 0h-3v3h3V0zM6 4V1.5H3V4h3zm1.5 0V1.5h-3V4h3zM10 2.5H6v3h4v-3zm-1.5-1V4h3V1.5h-3zM6 3h4V0H6v3zm5.5 2.5h3v-3h-3v3zm-1.5-4V4h3V1.5h-3zM14.5 0h-3v3h3V0zM16 4V1.5h-3V4h3zm-4.5 13.5a6 6 0 006-6h-3a3 3 0 01-3 3v3zm-6-6a6 6 0 006 6v-3a3 3 0 01-3-3h-3zm6-6a6 6 0 00-6 6h3a3 3 0 013-3v-3zm6 6a6 6 0 00-6-6v3a3 3 0 013 3h3zm-2.595.366l.442-.442-2.121-2.122-.443.442 2.122 2.122zM12.3 14.469l2.604-2.603-2.121-2.122-2.604 2.604 2.121 2.121zm-3.358 0a2.375 2.375 0 003.358 0l-2.12-2.121a.625.625 0 01.883 0l-2.121 2.121zm-.848-.848l.848.848 2.12-2.121-.847-.848-2.12 2.121zm-.442-.441l.442.441 2.121-2.12-.442-.443-2.12 2.122zm.884-3.006l-.884.884 2.121 2.122.884-.884-2.121-2.122zm2.563.442l-.442-.442-2.121 2.122.442.442 2.121-2.122zm.583.583l-.583-.583-2.121 2.122.582.582 2.122-2.121zM11.9 8.86L9.56 11.2l2.122 2.121 2.338-2.338L11.9 8.86zm.442-.442l-.442.442 2.121 2.122.442-.442-2.121-2.122zm3.005.884l-.884-.884-2.121 2.122.883.884 2.122-2.122z" mask="url(#a)"/></g><defs><clipPath id="clip0_4629_2028"><path fill="#fff" d="M0 0h16v16H0z"/></clipPath></defs></svg>