<svg stroke-linejoin="round" data-testid="geist-icon" viewBox="0 0 16 16"><path fill="white" fill-rule="evenodd" d="M2.5 2.384a5.583 5.583 0 013-.884c.868 0 1.517.417 2.264.976l.153.114c.316.238.668.504 1.032.71.438.25.951.45 1.551.45.977 0 2.008-.282 2.759-.541.083-.029.164-.057.241-.086V8.82c-.134.07-.308.15-.518.233-.57.222-1.4.448-2.425.448-.906 0-1.443-.328-2.13-.76l-.022-.014c-.7-.44-1.552-.976-2.905-.976a7.078 7.078 0 00-3 .674v-6.04zm0 7.75V16H1V1.652l.266-.225L1.75 2l-.484-.573.002-.001.002-.002.007-.006.02-.016a4.933 4.933 0 01.3-.22A7.082 7.082 0 015.5 0c1.404.001 2.404.709 3.162 1.275l.169.127c.321.241.586.44.859.595.303.173.558.254.81.254.727 0 1.572-.218 2.27-.459a12.45 12.45 0 001.134-.457l.014-.007h.003v-.001L15 .799V9.64l-.318.223-.432-.613c.432.613.431.613.431.614h-.001l-.003.003-.007.004-.02.014-.065.042c-.054.034-.13.08-.228.135a6.854 6.854 0 01-.828.386 8.172 8.172 0 01-2.972.552c-1.353 0-2.204-.535-2.905-.976l-.023-.014c-.687-.432-1.224-.76-2.129-.76a5.582 5.582 0 00-3 .884zm-.268.19s0 .001 0 0z" clip-rule="evenodd"/></svg>