<svg stroke-linejoin="round" data-testid="geist-icon" viewBox="0 0 16 16"><path fill="white" fill-rule="evenodd" d="M0 7.945a7.001 7.001 0 014.262-6.444H1v-1.5h4.925a1 1 0 011 1v4.925h-1.5V2.674A5.5 5.5 0 007 13.445h.75v1.5H7a7 7 0 01-7-7zm14.37-2.317c-.896 0-1.622.726-1.622 1.622v2.13a1.622 1.622 0 103.245 0V7.25c0-.896-.727-1.622-1.623-1.622zm-.377 1.622a.377.377 0 11.755 0v2.13a.377.377 0 11-.755 0V7.25zm-2.75-.877a.622.622 0 00-.774-.604l-1 .25-.604.151.302 1.208.604-.151.226-.057v2.58h-1v1.245H12.243V9.75h-1V6.373z" clip-rule="evenodd"/></svg>