<svg stroke-linejoin="round" data-testid="geist-icon" viewBox="0 0 16 16"
width={16}
height={16}><g clip-path="url(#clip0_53_135ozsqepq9w)"><path fill="white" fill-rule="evenodd" d="M2.25 0A2.25 2.25 0 000 2.25v11.5A2.25 2.25 0 002.25 16h11.5A2.25 2.25 0 0016 13.75V2.25A2.25 2.25 0 0013.75 0H2.25zM1.5 2.25a.75.75 0 01.75-.75h11.5a.75.75 0 01.75.75v11.5a.75.75 0 01-.75.75H2.25a.75.75 0 01-.75-.75V2.25zm4 7.75V7.125a.875.875 0 111.75 0v4.125h1.5V7.125a.875.875 0 111.75 0v4.125H12V7.125a2.375 2.375 0 00-4-1.732 2.367 2.367 0 00-2.5-.477V4.75H4v6.5h1.5V10z" clip-rule="evenodd"/></g><defs><clipPath id="clip0_53_135ozsqepq9w"><path fill="white" d="M0 0h16v16H0z"/></clipPath></defs></svg>