<svg stroke-linejoin="round" data-testid="geist-icon" viewBox="0 0 16 16"
width={16}
height={16}><path fill="white" fill-rule="evenodd" d="M0 2.25A2.25 2.25 0 012.25 0h11.5A2.25 2.25 0 0116 2.25v11.5A2.25 2.25 0 0113.75 16H2.25A2.25 2.25 0 010 13.75V2.25zm2.25-.75a.75.75 0 00-.75.75v11.5c0 .414.336.75.75.75h11.5a.75.75 0 00.75-.75V2.25a.75.75 0 00-.75-.75H2.25zM10.246 5C9.42 5 8.75 5.67 8.75 6.496V7h1.75v1.5H8.75v1.004A2.996 2.996 0 015.754 12.5h-.75V11h.75c.826 0 1.496-.67 1.496-1.496V8.5H5.5V7h1.75v-.504A2.996 2.996 0 0110.246 3.5h.75V5h-.75z" clip-rule="evenodd"/></svg>