<svg stroke-linejoin="round" data-testid="geist-icon" viewBox="0 0 16 16"><g clip-path="url(#clip0_1534_28977)"><path stroke="white" stroke-width="1.5" d="M15.25 8V2.25a1.5 1.5 0 00-1.5-1.5H2.25a1.5 1.5 0 00-1.5 1.5v11.5a1.5 1.5 0 001.5 1.5H8"/><path stroke="white" stroke-linecap="square" stroke-width="1.5" d="M9.246 4.25v0A2.246 2.246 0 007 6.496v3.008a2.246 2.246 0 01-2.246 2.246v0M5.25 7.75h3.5"/><path fill="color(display-p3 1 .7804 0)" d="M14 15a1 1 0 01-1 1h-.5a1 1 0 01-1-1v-1.5a1 1 0 011-1 1 1 0 001-1V11h.75a1.75 1.75 0 110 3.5H14v.5z"/><path fill="color(display-p3 .2009 .5579 .8458)" d="M11 10a1 1 0 011-1h.5a1 1 0 011 1v1.5a1 1 0 01-1 1 1 1 0 00-1 1v.5h-.75a1.75 1.75 0 110-3.5H11V10z"/></g></svg>