<svg stroke-linejoin="round" data-testid="geist-icon" viewBox="0 0 16 16"
width={16}
height={16}><path fill="white" fill-rule="evenodd" d="M0 2.25A2.25 2.25 0 012.25 0h11.5A2.25 2.25 0 0116 2.25V8h-1.5V2.25a.75.75 0 00-.75-.75H2.25a.75.75 0 00-.75.75v11.5c0 .414.336.75.75.75H8V16H2.25A2.25 2.25 0 010 13.75V2.25zM9.246 5C8.42 5 7.75 5.67 7.75 6.496V7H9.5v1.5H7.75v1.004A2.996 2.996 0 014.754 12.5h-.75V11h.75c.826 0 1.496-.67 1.496-1.496V8.5H4.5V7h1.75v-.504A2.996 2.996 0 019.246 3.5h.75V5h-.75z" clip-rule="evenodd"/><path fill="color(display-p3 .5569 .3059 .7765)" fill-rule="evenodd" d="M11.5 11.875c0-.207.168-.375.375-.375H16V10h-4.125a1.875 1.875 0 00-1.5 3 1.875 1.875 0 001.5 3H16v-1.5h-4.125a.375.375 0 010-.75H15v-1.5h-3.125a.375.375 0 01-.375-.375z" clip-rule="evenodd"/></svg>