<svg stroke-linejoin="round" data-testid="geist-icon" viewBox="0 0 16 16"
width={16}
height={16}><path fill="white" fill-rule="evenodd" d="M2.5 6.5v-4h3v4h-3zM1 2a1 1 0 011-1h4a1 1 0 011 1v5a1 1 0 01-1 1H2a1 1 0 01-1-1V2zm1.5 11.5v-2h3v2h-3zM1 11a1 1 0 011-1h4a1 1 0 011 1v3a1 1 0 01-1 1H2a1 1 0 01-1-1v-3zm9.5-8.5v2h3v-2h-3zM10 1a1 1 0 00-1 1v3a1 1 0 001 1h4a1 1 0 001-1V2a1 1 0 00-1-1h-4zm3.5 12.5h-3v-4h3v4zM9 9a1 1 0 011-1h4a1 1 0 011 1v5a1 1 0 01-1 1h-4a1 1 0 01-1-1V9z" clip-rule="evenodd"/></svg>