<svg stroke-linejoin="round" data-testid="geist-icon" viewBox="0 0 16 16"
width={16}
height={16}><path fill="white" fill-rule="evenodd" d="M8 1a7 7 0 00-7 7v3h2.25a2 2 0 002-2v-.75a2 2 0 00-2-2h-.466a5.502 5.502 0 0110.432 0h-.466a2 2 0 00-2 2V9a2 2 0 002 2h.75a2.5 2.5 0 01-2.5 2.5h-1V13a1 1 0 00-1-1H7a1 1 0 00-1 1v1a1 1 0 001 1h4a4 4 0 004-4V8a7 7 0 00-7-7zm4.75 6.75h.744c.004.083.006.166.006.25v1.5h-.75a.5.5 0 01-.5-.5v-.75a.5.5 0 01.5-.5zm-10.244 0A5.59 5.59 0 002.5 8v1.5h.75a.5.5 0 00.5-.5v-.75a.5.5 0 00-.5-.5h-.744z" clip-rule="evenodd"/></svg>