<svg stroke-linejoin="round" data-testid="geist-icon" viewBox="0 0 16 16"><circle cx="13.5" cy="2.5" r="2.5" fill="#52a8ff"/><path fill="white" fill-rule="evenodd" d="M15.29 6.078l.604 1.21a1 1 0 01.106.448V12a2.5 2.5 0 01-2.5 2.5h-11A2.5 2.5 0 010 12V7.736a1 1 0 01.106-.447L3 1.5h6.626A4.007 4.007 0 009.531 3H3.927l-2.25 4.5H6.75v.75a1.25 1.25 0 102.5 0V7.5h5.073l-.506-1.012a3.975 3.975 0 001.472-.41zM1.5 12V9h3.854a2.751 2.751 0 005.292 0H14.5v3a1 1 0 01-1 1h-11a1 1 0 01-1-1z" clip-rule="evenodd"/></svg>