<svg stroke-linejoin="round" data-testid="geist-icon" viewBox="0 0 16 16"
width={16}
height={16}><path fill="white" fill-rule="evenodd" d="M13 15.1l-1-.6-1.848 1.386a.254.254 0 01-.304 0L8 14.5l-1.856 1.392a.254.254 0 01-.294.008l-2.1-1.4L3 15l-.167.112-.997.664-.15.1a.12.12 0 01-.186-.1V0h7.586a1 1 0 01.707.293l4.414 4.414a1 1 0 01.293.707V15.788a.12.12 0 01-.182.103l-.171-.103-1.01-.606L13 15.1zM12.379 5L9.5 2.121V5h2.879zM8 1.5v5h5v6.85l-.228-.136-.865-.52-.807.606-1.1.825-1.1-.825-.9-.675-.9.675-1.151.863-1.367-.911-.832-.555-.75.5V1.5h5z" clip-rule="evenodd"/></svg>