<svg stroke-linejoin="round" data-testid="geist-icon" viewBox="0 0 16 16"><path fill="white" fill-rule="evenodd" d="M10.679 2.054l-.862 3.509 3.508.862.863-3.51-3.51-.861zM10.383.436a.827.827 0 00-1 .606L8.199 5.859a.827.827 0 00.606 1l4.816 1.183a.827.827 0 001-.605l1.184-4.817a.827.827 0 00-.606-1L10.383.436zM9.5 14.5a2 2 0 100-4 2 2 0 000 4zm0 1.5a3.5 3.5 0 100-7 3.5 3.5 0 000 7zM2.931 5.148l2.685 2.365L2.257 8.66l.674-3.513zm-2.463 4.88a.526.526 0 00.686.596L7.69 8.389a.526.526 0 00.178-.892L2.644 2.896a.526.526 0 00-.864.295L.468 10.027z" clip-rule="evenodd"/></svg>