<svg stroke-linejoin="round" data-testid="geist-icon" viewBox="0 0 16 16"><g clip-path="url(#clip0_4769_1975)"><circle cx="13.5" cy="2.5" r="2.5" fill="#52a8ff"/><path fill="white" fill-rule="evenodd" d="M3 14.5h-.75a.75.75 0 01-.75-.75V12.5H0v1.25A2.25 2.25 0 002.25 16H3v-1.5zm3 0H4V16h2v-1.5zM4 0h2v1.5H4V0zM1.5 3.5V2.25a.75.75 0 01.75-.75H3V0h-.75A2.25 2.25 0 000 2.25V3.5h1.5zm0 5v3H0v-3h1.5zm0-1v-3H0v3h1.5zM8.75 16a2.25 2.25 0 01-2.25-2.25V2.25A2.25 2.25 0 018.75 0h1.627a3.986 3.986 0 00-.751 1.5H8.75a.75.75 0 00-.75.75v11.5c0 .414.336.75.75.75h5a.75.75 0 00.75-.75V6.374a3.987 3.987 0 001.5-.751v8.127A2.25 2.25 0 0113.75 16h-5z" clip-rule="evenodd"/></g><defs><clipPath id="clip0_4769_1975"><path fill="#fff" d="M0 0h16v16H0z" transform="rotate(-90 8 8)"/></clipPath></defs></svg>