<svg stroke-linejoin="round" data-testid="geist-icon" viewBox="0 0 16 16"
width={16}
height={16}><g clip-path="url(#clip0_4769_1958)"><path fill="white" fill-rule="evenodd" d="M2.25 14.5H3V16h-.75A2.25 2.25 0 010 13.75V12.5h1.5v1.25c0 .414.336.75.75.75zm1.75 0h2V16H4v-1.5zM6 0H4v1.5h2V0zM1.5 2.25V3.5H0V2.25A2.25 2.25 0 012.25 0H3v1.5h-.75a.75.75 0 00-.75.75zm0 9.25v-3H0v3h1.5zm0-7v3H0v-3h1.5zm5 9.25A2.25 2.25 0 008.75 16h5A2.25 2.25 0 0016 13.75V2.25A2.25 2.25 0 0013.75 0h-5A2.25 2.25 0 006.5 2.25v11.5zm2.25.75a.75.75 0 01-.75-.75V2.25a.75.75 0 01.75-.75h5a.75.75 0 01.75.75v11.5a.75.75 0 01-.75.75h-5z" clip-rule="evenodd"/></g><defs><clipPath id="clip0_4769_1958"><path fill="#fff" d="M0 0h16v16H0z" transform="rotate(-90 8 8)"/></clipPath></defs></svg>