<svg stroke-linejoin="round" data-testid="geist-icon" viewBox="0 0 16 16"
width={16}
height={16}><path fill="white" fill-rule="evenodd" d="M14.5 8c0 1.107-.277 2.15-.765 3.063l-2.39-1.366c.259-.51.405-1.086.405-1.697 0-.61-.146-1.188-.405-1.697l2.39-1.366c.488.913.765 1.956.765 3.063zm-3.437-5.735A6.472 6.472 0 008 1.5c-1.107 0-2.15.277-3.063.765l1.366 2.39A3.734 3.734 0 018 4.25c.61 0 1.188.146 1.697.405l1.366-2.39zm-1.366 9.08l1.366 2.39A6.471 6.471 0 018 14.5a6.471 6.471 0 01-3.063-.765l1.366-2.39c.51.259 1.086.405 1.697.405.61 0 1.188-.146 1.697-.405zM4.655 9.697A3.734 3.734 0 014.25 8c0-.61.146-1.188.405-1.697l-2.39-1.366A6.471 6.471 0 001.5 8c0 1.107.277 2.15.765 3.063l2.39-1.366zM16 8A8 8 0 110 8a8 8 0 0116 0zm-5.5 0a2.5 2.5 0 11-5 0 2.5 2.5 0 015 0z" clip-rule="evenodd"/></svg>