<svg stroke-linejoin="round" data-testid="geist-icon" viewBox="0 0 16 16"
width={16}
height={16}><g clip-path="url(#clip0_872_3187)"><path fill="url(#paint0_linear_872_3187)" fill-rule="evenodd" d="M0 2.993V13c0 .648.205 1.248.555 1.738l1.479-1.479A1.001 1.001 0 012 13V8H0V2.993zM8 2h5a1 1 0 011 1v10a1 1 0 01-1 1H8.5v2H13a3 3 0 003-3V3a3 3 0 00-3-3H8v2zm-.5 14v-2H3c-.09 0-.176-.012-.259-.034l-1.48 1.48C1.753 15.794 2.353 16 3 16h4.5z" clip-rule="evenodd"/><mask id="a" fill="#fff"><rect width="9" height="9" x="3.5" y="3.5" rx=".5"/></mask><rect width="9" height="9" x="3.5" y="3.5" fill="transparent" stroke="var(--ds-gray-1000)" stroke-width="4" mask="url(#a)" rx=".5"/></g><defs><linearGradient id="paint0_linear_872_3187" x1="8.7" x2="1.8" y1="2" y2="8.8" gradientUnits="userSpaceOnUse"><stop stop-color="#0096FF"/><stop offset="1" stop-color="#FF1E56"/></linearGradient><clipPath id="clip0_872_3187"><path fill="#fff" d="M0 0h16v16H0z"/></clipPath></defs></svg>