<svg stroke-linejoin="round" data-testid="geist-icon" viewBox="0 0 16 16"
width={16}
height={16}><g clip-path="url(#clip0_872_3160)"><path fill="#0075FF" d="M16 9.983V3.357A3.357 3.357 0 0012.644 0H3.357A3.357 3.357 0 000 3.356v6.627c-.161 4.977 3.59 4.755 4.1 4.755l3.893.258h.013l4.21-.258c.51 0 3.945.222 3.784-4.755z"/><path fill="#fff" d="M10.252 7.788c3.776-2.597 4.063-.45 2.546 2.811-.47.836.562 1.176 1.435 1.293 0 0-.527 1.618-1.663 2.54l-1.948.461-.629.197c-.005 0-.881.264-1.013.301H7.02c-.132-.037-1.009-.301-1.014-.301l-.628-.197-1.949-.461c-1.135-.922-1.663-2.54-1.662-2.541.872-.117 1.905-.457 1.434-1.292-1.517-3.26-1.23-5.408 2.546-2.81.707-.295 1.366-.354 2.24-.373h.024c.874.02 1.533.078 2.24.372z"/><path fill="#002F66" d="M3.297 7.376a.498.498 0 00-.169.062c-.163.105-.125.347-.111.512.026.315.095.631.178.939.056.215.13.426.218.63.1-.154.21-.3.332-.437.093-.105.192-.205.295-.3.54-.5 1.078-.749 1.078-.749-.519-.373-1.152-.802-1.82-.658h-.001zm9.404 0c.059.012.118.03.168.062.164.105.126.347.112.512a5.348 5.348 0 01-.178.939c-.056.215-.13.426-.218.63-.1-.154-.21-.3-.332-.437a4.211 4.211 0 00-.295-.3c-.54-.5-1.078-.749-1.078-.749.519-.373 1.152-.802 1.82-.658h.001zm-3.724 8.011l-.007-.017a.946.946 0 00-.549-.485 1.243 1.243 0 00-.858.005.945.945 0 00-.535.48l-.008.017a.02.02 0 00-.001.004c.207.338.568.604.974.609h.012c.407-.004.767-.27.974-.609a.02.02 0 01-.001-.003zM7.5 12.011a1.533 1.533 0 00-.315-.262 1.93 1.93 0 00-.399-.19 2.176 2.176 0 00-.953-.104 2.237 2.237 0 00-1.004.364c-.17.113-.325.246-.462.396-.155.17-.29.358-.403.558-.131.234-.239.48-.321.736-.097.301-.169.61-.214.923l-.02.14v-.002c-.005.03-.017.097-.021.14.875.102 1.75.221 2.618.38-.015-.003.098-.492.112-.542.037-.129.081-.257.143-.376a1.04 1.04 0 01.37-.409c.15-.094.316-.157.472-.238a2.02 2.02 0 00.496-.346c.142-.139.188-.294.186-.49a.946.946 0 00-.077-.36 1.154 1.154 0 00-.208-.319zm5.112 2.7c-.005-.044-.016-.111-.02-.14v.001c-.006-.047-.014-.093-.021-.14a5.662 5.662 0 00-.214-.923 4.06 4.06 0 00-.322-.736 3.066 3.066 0 00-.403-.558 2.524 2.524 0 00-.461-.396 2.28 2.28 0 00-1.004-.364 2.245 2.245 0 00-.953.105c-.14.048-.274.11-.4.19-.115.072-.221.16-.314.26a1.143 1.143 0 00-.208.319.936.936 0 00-.077.36c-.002.197.044.351.185.49.145.142.317.254.496.347.157.08.323.143.472.238.16.1.283.24.37.409.062.119.107.246.143.376.014.05.128.539.113.541a40.825 40.825 0 012.618-.38z"/><path fill="#fff" d="M6.322 13.158a.39.39 0 100-.779.39.39 0 000 .78zm3.354 0a.39.39 0 100-.779.39.39 0 000 .78z"/></g><defs><clipPath id="clip0_872_3160"><path fill="#fff" d="M0 0h16v16H0z"/></clipPath></defs></svg>