<svg stroke-linejoin="round" data-testid="geist-icon" viewBox="0 0 16 16"
width={16}
height={16}><g clip-path="url(#clip0_872_3154)"><path fill="url(#paint0_linear_872_3154)" d="M15.596 2.323l-7.18 12.84a.39.39 0 01-.68.003L.413 2.324a.39.39 0 01.408-.577l7.188 1.285a.39.39 0 00.138 0l7.038-1.283a.39.39 0 01.41.574z"/><path fill="url(#paint1_linear_872_3154)" d="M11.433.061L6.119 1.103a.195.195 0 00-.157.18l-.327 5.52c-.008.13.112.231.239.202l1.479-.342a.195.195 0 01.235.23l-.44 2.152a.195.195 0 00.248.226l.914-.278a.195.195 0 01.248.226L7.859 12.6c-.043.212.238.327.355.146l.079-.122 4.33-8.64a.195.195 0 00-.212-.28l-1.523.294a.195.195 0 01-.224-.245l.994-3.446a.195.195 0 00-.225-.246z"/></g><defs><linearGradient id="paint0_linear_872_3154" x1=".2" x2="9.2" y1="1.3" y2="13.4" gradientUnits="userSpaceOnUse"><stop stop-color="#41D1FF"/><stop offset="1" stop-color="#BD34FE"/></linearGradient><linearGradient id="paint1_linear_872_3154" x1="7.6" x2="9.2" y1=".3" y2="11.4" gradientUnits="userSpaceOnUse"><stop stop-color="#FFEA83"/><stop offset=".1" stop-color="#FFDD35"/><stop offset="1" stop-color="#FFA800"/></linearGradient><clipPath id="clip0_872_3154"><path fill="#fff" d="M0 0h16v16H0z"/></clipPath></defs></svg>