<svg stroke-linejoin="round" data-testid="geist-icon" viewBox="0 0 16 16"
width={16}
height={16}><path fill="#5E6AD2" d="M1.172 9.613c-.032-.133.127-.216.223-.12l5.112 5.112c.096.096.013.255-.12.223a7.017 7.017 0 01-5.215-5.215zM1 7.564a.139.139 0 00.04.107l7.289 7.288a.138.138 0 00.107.04c.331-.02.657-.064.974-.129a.136.136 0 00.067-.23L1.361 6.522a.136.136 0 00-.231.067 7.009 7.009 0 00-.13.974zm.59-2.405a.138.138 0 00.029.154l9.068 9.068c.04.04.102.053.154.03.25-.112.493-.237.726-.376a.137.137 0 00.026-.216L2.18 4.407a.137.137 0 00-.216.026 6.986 6.986 0 00-.375.726zM2.772 3.53a.138.138 0 01-.006-.19 7.007 7.007 0 119.893 9.893.138.138 0 01-.19-.005L2.773 3.53z"/></svg>