<svg stroke-linejoin="round" data-testid="geist-icon" viewBox="0 0 16 16"><path fill="color(display-p3 .9176 .2627 .2078)" d="M10.153 5.08h.488l1.39-1.404.069-.596a6.23 6.23 0 00-2.798-1.433 6.194 6.194 0 00-3.134.119 6.24 6.24 0 00-2.683 1.642 6.326 6.326 0 00-1.555 2.75.75.75 0 01.488-.029L5.2 5.666s.141-.236.214-.222a3.447 3.447 0 014.748-.365h-.01z"/><path fill="#4285F4" d="M14.013 6.159a6.336 6.336 0 00-1.889-3.075l-1.952 1.971c.407.336.733.76.954 1.242.22.48.33 1.007.32 1.537v.35a1.723 1.723 0 011.228.513 1.755 1.755 0 01.51 1.24 1.769 1.769 0 01-.51 1.24 1.736 1.736 0 01-1.228.515H7.971l-.346.354v2.104l.346.35h3.475a4.49 4.49 0 002.7-.878 4.561 4.561 0 001.65-2.33c.288-.936.27-1.94-.05-2.865a4.557 4.557 0 00-1.733-2.268z"/><path fill="#34A853" d="M4.492 14.48h3.475V11.67H4.492c-.247 0-.492-.053-.717-.157l-.488.153-1.4 1.404-.123.492c.786.6 1.744.921 2.728.917z"/><path fill="#FBBC05" d="M4.492 5.37a4.49 4.49 0 00-2.62.865A4.56 4.56 0 00.235 8.476c-.3.901-.314 1.874-.04 2.784.273.91.822 1.71 1.568 2.289l2.015-2.035a1.741 1.741 0 01-.993-1.283 1.77 1.77 0 01.48-1.556 1.734 1.734 0 011.54-.485 1.73 1.73 0 011.272 1.004l2.015-2.035A4.524 4.524 0 006.5 5.839a4.478 4.478 0 00-2.008-.469z"/></svg>