<svg stroke-linejoin="round" data-testid="geist-icon" viewBox="0 0 16 16"><path fill="#1ABCFE" d="M8.003 8a2.667 2.667 0 115.334 0 2.667 2.667 0 01-5.334 0z"/><path fill="#0ACF83" d="M2.67 13.333a2.667 2.667 0 012.667-2.666h2.666v2.666a2.666 2.666 0 11-5.333 0z"/><path fill="#FF7262" d="M8.003 0v5.333h2.667a2.667 2.667 0 000-5.333H8.003z"/><path fill="#F24E1E" d="M2.67 2.667a2.667 2.667 0 002.667 2.666h2.667V0H5.337A2.667 2.667 0 002.67 2.667z"/><path fill="#A259FF" d="M2.67 8a2.667 2.667 0 002.667 2.667h2.666V5.333H5.337A2.667 2.667 0 002.67 8z"/></svg>