<svg stroke-linejoin="round" data-testid="geist-icon" viewBox="0 0 16 16"
width={16}
height={16}><g clip-path="url(#clip0_872_3188)"><path fill="url(#paint0_linear_872_3188)" fill-rule="evenodd" d="M8 0v2a6 6 0 01.5 11.98v2.005A8 8 0 008 0zm-.5 15.985V13.98a5.974 5.974 0 01-3.374-1.399L2.708 14A7.967 7.967 0 007.5 15.985zM2 13.292A7.97 7.97 0 010 8h2c0 1.477.534 2.83 1.418 3.874l-1.417 1.418z" clip-rule="evenodd"/><rect width="7" height="7" x="4.5" y="4.5" fill="transparent" stroke="var(--ds-gray-1000)" stroke-width="2" rx="3.5"/></g><defs><linearGradient id="paint0_linear_872_3188" x1="8.7" x2="1.8" y1="2" y2="8.8" gradientUnits="userSpaceOnUse"><stop stop-color="#0096FF"/><stop offset="1" stop-color="#FF1E56"/></linearGradient><clipPath id="clip0_872_3188"><path fill="#fff" d="M0 0h16v16H0z"/></clipPath></defs></svg>