<svg stroke-linejoin="round" data-testid="geist-icon" viewBox="0 0 16 16"
width={16}
height={16}><g clip-path="url(#clip0_872_3157)"><path fill="#639" d="M8 0C3.6 0 0 3.6 0 8s3.6 8 8 8 8-3.6 8-8-3.6-8-8-8zM3.543 12.457c-1.2-1.2-1.829-2.8-1.829-4.343l6.229 6.172c-1.6-.057-3.2-.629-4.4-1.829zm5.828 1.657L1.886 6.63C2.514 3.829 5.029 1.714 8 1.714a6.301 6.301 0 015.086 2.572l-.857.743C11.257 3.714 9.714 2.857 8 2.857c-2.229 0-4.114 1.429-4.857 3.429l6.571 6.571c1.657-.571 2.915-2 3.315-3.714h-2.743V8h4c0 2.971-2.115 5.486-4.915 6.114z"/></g><defs><clipPath id="clip0_872_3157"><path fill="#fff" d="M0 0h16v16H0z"/></clipPath></defs></svg>