<svg stroke-linejoin="round" data-testid="geist-icon" viewBox="0 0 16 16"
width={16}
height={16}><path fill="#FF4500" d="M7.991 15.894a7.903 7.903 0 100-15.806 7.903 7.903 0 000 15.806z"/><path fill="#fff" d="M13.262 7.991a1.156 1.156 0 00-1.953-.792 5.619 5.619 0 00-3.043-.972L8.78 3.76l1.691.356a.79.79 0 10.104-.483l-1.937-.387a.245.245 0 00-.292.187v.003L7.76 6.18c-1.1.018-2.17.355-3.082.972a1.152 1.152 0 10-1.58 1.682c.091.084.195.157.31.208a2.55 2.55 0 000 .348c0 1.77 2.064 3.21 4.608 3.21 2.543 0 4.606-1.438 4.606-3.21a2.554 2.554 0 000-.348c.397-.198.647-.607.639-1.051zm-7.903.792c0-.436.355-.792.791-.792.436 0 .792.356.792.792a.793.793 0 01-.792.791.795.795 0 01-.791-.791zm4.59 2.204v-.032a3.035 3.035 0 01-1.952.61 3.034 3.034 0 01-1.953-.61.213.213 0 01.3-.3 2.58 2.58 0 001.645.497 2.6 2.6 0 001.652-.481.222.222 0 01.313.004.222.222 0 01-.004.312zM9.843 9.63h-.04l.006-.03a.793.793 0 01-.791-.79c0-.437.355-.793.791-.793.436 0 .792.356.792.792a.79.79 0 01-.758.821z"/></svg>