<svg stroke-linejoin="round" data-testid="geist-icon" viewBox="0 0 16 16"><g clip-path="url(#clip0_872_3176)"><path fill="#E24329" d="M15.527 6.687l-.021-.056-2.12-5.532a.552.552 0 00-.548-.347.568.568 0 00-.319.119.568.568 0 00-.188.285L10.9 5.536H5.104l-1.43-4.38a.556.556 0 00-1.056-.058L.495 6.628l-.022.055a3.936 3.936 0 001.306 4.55l.007.005.02.014 3.229 2.418 1.597 1.209.973.735a.654.654 0 00.792 0l.973-.735 1.597-1.21 3.248-2.432.008-.006a3.938 3.938 0 001.304-4.544z"/><path fill="#FC6D26" d="M15.527 6.687l-.021-.056a7.16 7.16 0 00-2.85 1.28L8 11.432c1.585 1.2 2.965 2.242 2.965 2.242l3.249-2.432.008-.007a3.938 3.938 0 001.305-4.547z"/><path fill="#FCA326" d="M5.035 13.673l1.597 1.21.973.734a.654.654 0 00.791 0l.974-.735 1.597-1.209L8 11.432c-1.585 1.196-2.965 2.241-2.965 2.241z"/><path fill="#FC6D26" d="M3.344 7.912a7.151 7.151 0 00-2.85-1.285l-.02.056a3.936 3.936 0 001.305 4.55l.007.005.02.014 3.229 2.418L8 11.429 3.344 7.912z"/></g><defs><clipPath id="clip0_872_3176"><path fill="#fff" d="M0 0h16v16H0z"/></clipPath></defs></svg>