<svg stroke-linejoin="round" data-testid="geist-icon" viewBox="0 0 16 16"
width={16}
height={16}><path fill="white" fill-rule="evenodd" d="M8 4a1.5 1.5 0 100-3 1.5 1.5 0 000 3zm.971.757l.6 1 .858-.514-.6-1-.858.514zm-2.542 1l.6-1-.858-.514-.6 1 .858.514zm3.742 1l.6 1 .858-.514-.6-1-.858.514zm-4.942 1l.6-1-.858-.514-.6 1 .858.514zm6.142 1l.6 1 .858-.514-.6-1-.858.514zm-7.342 1l.6-1-.858-.514-.6 1 .858.514zm8.542 1l.6 1 .858-.514-.6-1-.858.514zm-9.742 1l.6-1-.858-.514-.6 1 .858.514zM3 13.5c0 .313-.096.604-.26.845v.155h-.122a1.5 1.5 0 11.382-1zm.925 1H5.11v-1H3.925v1zm2.37 0h1.186v-1H6.296v1zm2.371 0h1.185v-1H8.666v1zm2.37 0h1.186v-1h-1.185v1zm3.464.5a1.5 1.5 0 100-3 1.5 1.5 0 000 3z" clip-rule="evenodd"/></svg>