<svg stroke-linejoin="round" data-testid="geist-icon" viewBox="0 0 16 16"
width={16}
height={16}><mask id="a" style="mask-type:luminance" width="14" height="16" x="1" y="0" maskUnits="userSpaceOnUse"><path fill="#fff" d="M7.623.101l-6.246 3.62A.757.757 0 001 4.377v7.244c0 .27.143.52.377.655L7.624 15.9a.753.753 0 00.754 0l6.245-3.623a.759.759 0 00.377-.655V4.377c0-.27-.144-.52-.378-.656L8.378.1a.757.757 0 00-.756 0"/></mask><g mask="url(#a)"><path fill="url(#paint0_linear_872_3158)" d="M21.311 3.106L3.712-5.555l-9.024 18.483 17.6 8.661L21.31 3.106z"/></g><mask id="b" style="mask-type:luminance" width="14" height="16" x="1" y="0" maskUnits="userSpaceOnUse"><path fill="#fff" d="M1.155 12.08c.06.078.134.146.222.196l5.358 3.108.892.515a.755.755 0 00.583.071l6.588-12.11a.747.747 0 00-.176-.14l-4.09-2.37L8.372.1a.787.787 0 00-.196-.079l-7.02 12.06z"/></mask><g mask="url(#b)"><path fill="url(#paint1_linear_872_3158)" d="M-6.455 5.668L5.972 22.555l16.435-12.191L9.98-6.523-6.455 5.667z"/></g><mask id="c" style="mask-type:luminance" width="14" height="16" x="1" y="0" maskUnits="userSpaceOnUse"><path fill="#fff" d="M7.925.004a.76.76 0 00-.302.097l-6.228 3.61 6.716 12.28a.747.747 0 00.268-.092l6.246-3.623a.76.76 0 00.365-.517L8.144.017a.781.781 0 00-.215-.013"/></mask><g mask="url(#c)"><path fill="url(#paint2_linear_872_3158)" d="M1.395.001v15.99h13.592V.002H1.395z"/></g><defs><linearGradient id="paint0_linear_872_3158" x1="12.5" x2="3.4" y1="-1.2" y2="17.2" gradientUnits="userSpaceOnUse"><stop offset=".3" stop-color="#3E863D"/><stop offset=".5" stop-color="#55934F"/><stop offset=".8" stop-color="#5AAD45"/></linearGradient><linearGradient id="paint1_linear_872_3158" x1="-.2" x2="16.3" y1="14.2" y2="2.1" gradientUnits="userSpaceOnUse"><stop offset=".6" stop-color="#3E863D"/><stop offset=".7" stop-color="#619857"/><stop offset="1" stop-color="#76AC64"/></linearGradient><linearGradient id="paint2_linear_872_3158" x1="1.4" x2="15" y1="8" y2="8" gradientUnits="userSpaceOnUse"><stop offset=".2" stop-color="#6BBF47"/><stop offset=".4" stop-color="#79B461"/><stop offset=".5" stop-color="#75AC64"/><stop offset=".7" stop-color="#659E5A"/><stop offset=".9" stop-color="#3E863D"/></linearGradient></defs></svg>