<svg stroke-linejoin="round" data-testid="geist-icon" viewBox="0 0 16 16"
width={16}
height={16}><g clip-path="url(#clip0_872_3147)"><path fill="white" fill-rule="evenodd" d="M8 0C3.58 0 0 3.579 0 7.997a7.992 7.992 0 005.47 7.588c.4.07.55-.17.55-.38 0-.19-.01-.82-.01-1.49-2.01.37-2.53-.49-2.69-.94-.09-.23-.48-.939-.82-1.129-.28-.15-.68-.52-.01-.53.63-.01 1.08.58 1.23.82.72 1.21 1.87.87 2.33.66.07-.52.28-.87.51-1.07-1.78-.2-3.64-.89-3.64-3.949 0-.87.31-1.589.82-2.149-.08-.2-.36-1.02.08-2.12 0 0 .67-.209 2.2.82.64-.18 1.32-.27 2-.27.68 0 1.36.09 2 .27 1.53-1.039 2.2-.82 2.2-.82.44 1.1.16 1.92.08 2.12.51.56.82 1.27.82 2.15 0 3.068-1.87 3.748-3.65 3.948.29.25.54.73.54 1.48 0 1.07-.01 1.929-.01 2.199 0 .21.15.46.55.38A8.012 8.012 0 0016 7.997 7.996 7.996 0 008 0z" clip-rule="evenodd"/></g><defs><clipPath id="clip0_872_3147"><path fill="#fff" d="M0 0h16v16H0z"/></clipPath></defs></svg>