<svg stroke-linejoin="round" data-testid="geist-icon" viewBox="0 0 16 16"
width={16}
height={16}><g clip-path="url(#clip0_872_3189)"><rect width="14.5" height="14.5" x=".8" y=".8" stroke="url(#paint0_linear_872_3189)" stroke-width="1.5" rx="3.3"/><path fill="#fff" fill-rule="evenodd" d="M7.494 6.804a.092.092 0 01-.029.036v-.003L4.691 8.976c-.086.064-.215-.01-.172-.101l.804-1.744c.009-.02.01-.041.003-.061a.094.094 0 00-.043-.05L4.05 6.31a.1.1 0 01-.034-.03.08.08 0 01-.006-.082.094.094 0 01.029-.035l2.781-2.138c.083-.064.212.012.172.1l-.882 1.87a.079.079 0 00-.002.067c.01.021.028.039.052.05l1.281.58c.016.006.03.016.04.028a.079.079 0 01.014.085zm2.129.954a.623.623 0 000 1.244h1.755a.622.622 0 100-1.245H9.622z" clip-rule="evenodd"/></g><defs><linearGradient id="paint0_linear_872_3189" x1="8.3" x2="8.3" y1=".8" y2="16" gradientUnits="userSpaceOnUse"><stop stop-color="#F743B6"/><stop offset="1" stop-color="#FCC043"/></linearGradient><clipPath id="clip0_872_3189"><path fill="#fff" d="M0 0h16v16H0z"/></clipPath></defs></svg>