<svg stroke-linejoin="round" data-testid="geist-icon" viewBox="0 0 16 16"><path fill="white" d="M14.945 6.549a3.94 3.94 0 00-.347-3.274 4.106 4.106 0 00-4.4-1.934A4.065 4.065 0 007.15 0C5.375-.005 3.8 1.123 3.253 2.79A4.038 4.038 0 00.552 4.725a3.991 3.991 0 00.503 4.727 3.94 3.94 0 00.347 3.274 4.106 4.106 0 004.4 1.934A4.062 4.062 0 008.849 16c1.777.004 3.352-1.125 3.899-2.793a4.038 4.038 0 002.701-1.934 3.991 3.991 0 00-.504-4.725zM8.85 14.954c-.71.001-1.4-.244-1.945-.694.025-.013.068-.036.095-.053l3.23-1.84a.517.517 0 00.265-.454V7.422l1.365.777a.047.047 0 01.026.037v3.72c-.002 1.654-1.36 2.995-3.036 2.998zm-6.529-2.751a2.952 2.952 0 01-.362-2.01l.096.057 3.229 1.84a.532.532 0 00.53 0l3.942-2.246V11.4a.05.05 0 01-.02.042L6.474 13.3c-1.454.825-3.31.334-4.151-1.098zm-.85-6.955a3.019 3.019 0 011.582-1.314l-.001.11v3.68c-.001.187.1.36.265.453l3.941 2.246-1.364.777a.049.049 0 01-.046.004l-3.265-1.86a2.98 2.98 0 01-1.112-4.095zm11.212 2.575L8.742 5.577l1.364-.777a.049.049 0 01.046-.004l3.265 1.86a2.978 2.978 0 011.111 4.096 3.027 3.027 0 01-1.58 1.314v-3.79a.516.516 0 00-.264-.453zm1.358-2.017a4.333 4.333 0 00-.095-.057l-3.23-1.84a.532.532 0 00-.53 0L6.244 6.155V4.6a.05.05 0 01.02-.041L9.528 2.7c1.453-.828 3.312-.335 4.15 1.1.354.606.482 1.315.362 2.005h.001zM5.503 8.577L4.137 7.8a.047.047 0 01-.026-.037v-3.72c.001-1.656 1.363-2.998 3.041-2.997.71 0 1.397.246 1.943.694a2.276 2.276 0 00-.096.054L5.77 3.634a.516.516 0 00-.265.453l-.002 4.49zM6.243 7L8 6l1.756 1v2L8 10 6.244 9V7z"/></svg>