<svg stroke-linejoin="round" data-testid="geist-icon" viewBox="0 0 16 16"><path fill="white" stroke="white" stroke-width=".2" d="M6.717 5.811H8.68c1.208 0 1.208 1.208 0 1.208H6.717V5.81zm-4.68 5.585h6.039v-1.66H6.717V8.528h1.51c1.66 0 .754 2.868 2.113 2.868h3.773V8.528h-.905v.302a.77.77 0 01-1.51.302c-.15-.755-.755-1.358-.905-1.358 2.264-1.208.905-3.623-.906-3.623H2.793v1.66h1.509v3.925H2.038v1.66z"/><path fill="transparent" stroke="white" stroke-width="1.4" d="M8 14.49A6.49 6.49 0 108 1.51a6.49 6.49 0 000 12.98z"/><path fill="white" stroke="white" stroke-width=".5" d="M14.944 8.453L15.698 8l-.754-.453v.906zM14.722 9.799l.828-.297-.652-.592-.176.889zM14.242 11.075l.87-.13-.524-.706-.346.836zM13.522 12.234l.879.043-.376-.796-.503.753zM12.59 13.23l.853.213-.213-.854-.64.64zM11.481 14.025l.796.376-.043-.88-.753.504zM10.239 14.588l.707.524.13-.87-.837.346zM8.91 14.898l.592.652.297-.828-.888.176zM7.547 14.943l.453.755.453-.755h-.906zM6.201 14.722l.297.828.592-.652-.889-.176zM4.925 14.242l.13.87.706-.524-.836-.346zM3.766 13.522l-.043.879.796-.376-.753-.503zM2.77 12.59l-.213.853.854-.213-.64-.64zM1.975 11.481l-.376.796.88-.043-.504-.753zM1.412 10.239l-.524.707.87.13-.346-.837zM1.102 8.91l-.652.592.829.297-.177-.889zM1.057 7.547L.302 8l.755.453v-.906zM1.278 6.201l-.828.297.652.592.176-.889zM1.758 4.925l-.87.13.524.706.346-.836zM2.478 3.766L1.6 3.723l.376.796.503-.753zM3.41 2.77l-.853-.213.213.853.64-.64zM4.52 1.975L3.722 1.6l.043.88.753-.504zM5.761 1.412L5.054.888l-.13.87.837-.346zM7.09 1.102L6.498.45l-.297.828.889-.176zM8.453 1.057L8 .302l-.453.755h.906zM9.799 1.278L9.502.45l-.591.652.888.176zM11.075 1.758l-.13-.87-.706.524.836.346zM12.234 2.478l.043-.879-.796.376.753.503zM13.23 3.41l.213-.853-.853.213.64.64zM14.025 4.519l.376-.796-.88.043.504.753zM14.588 5.761l.524-.707-.87-.13.346.837zM14.898 7.09l.652-.592-.828-.297.176.889z"/><path fill="white" stroke="white" stroke-width=".9" d="M6.943 1.66L8 2.717 9.057 1.66H6.943zM13.703 5.036l-.679 1.331 1.332.679-.653-2.01zM12.581 12.508l-1.476-.234-.234 1.476 1.71-1.242zM5.128 13.75l-.233-1.476-1.476.234 1.71 1.242zM1.644 7.046l1.331-.679-.678-1.33-.653 2.009z"/></svg>