<svg stroke-linejoin="round" data-testid="geist-icon" viewBox="0 0 16 16"><path fill="url(#paint0_linear_1427_1479)" d="M5.535 13.441c-.803-.713-1.037-2.21-.703-3.295.58.684 1.383.9 2.215 1.023 1.284.188 2.545.118 3.738-.453.136-.065.262-.152.411-.24.112.316.141.634.102.959-.095.79-.5 1.4-1.142 1.862-.257.185-.53.35-.795.525-.816.536-1.037 1.165-.73 2.08l.03.098a2.183 2.183 0 01-1.32-2.002c-.004-.213-.004-.428-.033-.639-.072-.512-.32-.742-.786-.755-.48-.013-.858.274-.958.727-.008.035-.019.07-.03.11z"/><path fill="white" d="M1.5 10.478s2.194-1.05 4.393-1.05l1.659-5.043c.062-.244.243-.41.448-.41.205 0 .386.166.448.41l1.659 5.043c2.605 0 4.393 1.05 4.393 1.05L10.767.485C10.66.19 10.479 0 10.236 0H5.765c-.244 0-.417.19-.531.485L1.5 10.478z"/><defs><linearGradient id="paint0_linear_1427_1479" x1="4.7" x2="12.3" y1="16" y2="12.3" gradientUnits="userSpaceOnUse"><stop stop-color="color(display-p3 .8471 .2 .2)"/><stop offset="1" stop-color="color(display-p3 .9412 .2549 1)"/></linearGradient></defs></svg>