<svg stroke-linejoin="round" data-testid="geist-icon" viewBox="0 0 16 16"
width={16}
height={16}><path fill="#2684FF" d="M15.013 1a.466.466 0 01.37.173.505.505 0 01.11.406l-2.04 12.855a.685.685 0 01-.22.404.64.64 0 01-.419.162H3.027a.47.47 0 01-.315-.117.503.503 0 01-.166-.302l-2.04-13a.517.517 0 01.11-.405.483.483 0 01.37-.173L15.014 1zm-8.59 9.29h3.123l.846-4.586H5.665l.757 4.587z"/><path fill="url(#paint0_linear_872_3184)" d="M1.155 5.704h4.51l.757 4.587h3.124l3.689 4.544a.638.638 0 01-.42.165h-9.79a.47.47 0 01-.316-.117.503.503 0 01-.165-.302L1.155 5.704z"/><defs><linearGradient id="paint0_linear_872_3184" x1=".1" x2="7.8" y1="7" y2="12.8" gradientUnits="userSpaceOnUse"><stop offset=".2" stop-color="#0052CC"/><stop offset="1" stop-color="#2684FF"/></linearGradient></defs></svg>