<svg stroke-linejoin="round" data-testid="geist-icon" viewBox="0 0 16 16"><g clip-path="url(#clip0_872_3183)"><path fill="#149ECA" fill-rule="evenodd" d="M4.5 1.938c.201-.116.495-.152.913-.027.42.125.918.4 1.463.828.135.107.272.222.41.344-.424.451-.844.96-1.248 1.518-.686.072-1.336.18-1.939.322a8.706 8.706 0 01-.093-.526c-.099-.687-.088-1.256.014-1.682.101-.425.279-.661.48-.777zm2.995.016c.167.131.336.274.505.427.17-.153.338-.296.505-.427.604-.476 1.215-.829 1.796-1.002.583-.174 1.183-.178 1.699.12s.812.82.953 1.411c.14.59.14 1.296.03 2.056-.03.211-.069.429-.117.651.217.07.425.145.623.224.713.286 1.324.638 1.765 1.055.442.418.746.935.746 1.531 0 .596-.304 1.113-.746 1.531-.44.417-1.051.77-1.765 1.055-.198.079-.406.154-.623.224.048.222.087.44.118.65.11.761.11 1.467-.031 2.057-.141.591-.437 1.113-.953 1.411-.516.298-1.116.293-1.699.12-.581-.174-1.192-.526-1.796-1.002A9.824 9.824 0 018 13.62c-.17.153-.338.296-.505.427-.604.476-1.215.829-1.796 1.002-.583.174-1.183.178-1.699-.12s-.812-.82-.953-1.411c-.14-.59-.14-1.296-.03-2.056.03-.211.069-.429.117-.651a9.853 9.853 0 01-.623-.224C1.798 10.3 1.187 9.948.746 9.53.304 9.113 0 8.596 0 8c0-.596.304-1.113.746-1.531.44-.417 1.052-.77 1.765-1.055.198-.079.406-.154.623-.224a9.793 9.793 0 01-.118-.65c-.11-.761-.11-1.467.031-2.057.141-.591.437-1.113.953-1.411.516-.298 1.116-.294 1.699-.12.581.173 1.192.526 1.796 1.002zM7.367 4.51c.21-.258.422-.5.633-.726.211.225.423.468.633.726a19.467 19.467 0 00-1.266 0zm1.347-1.427c.424.451.844.96 1.248 1.518.686.072 1.336.18 1.939.322.037-.18.068-.356.093-.526.099-.687.088-1.256-.014-1.682-.101-.425-.279-.661-.48-.777-.201-.116-.495-.152-.913-.027-.42.125-.918.4-1.463.828a8.707 8.707 0 00-.41.344zM8 5.5c.484 0 .956.019 1.412.055A18.101 18.101 0 0110.824 8a18.062 18.062 0 01-1.412 2.445 18.043 18.043 0 01-2.824 0A18.078 18.078 0 015.176 8a18.083 18.083 0 011.412-2.445C7.044 5.519 7.516 5.5 8 5.5zm3.031.75c.106.184.209.369.307.553.12-.311.224-.615.314-.911-.301-.07-.617-.132-.946-.185.11.178.219.359.325.543zm0 3.5c.106-.184.209-.369.307-.553.12.311.224.615.314.911-.301.07-.617.132-.946.185.11-.178.219-.359.325-.543zM11.925 8c.28.63.511 1.247.69 1.84.175-.058.343-.12.503-.183.643-.257 1.13-.552 1.45-.853.316-.3.432-.572.432-.804 0-.232-.116-.504-.433-.804-.318-.301-.806-.596-1.45-.853a8.694 8.694 0 00-.502-.183c-.179.593-.41 1.21-.69 1.84zm-1.963 3.4a15.738 15.738 0 001.939-.323c.037.18.068.356.093.526.099.687.088 1.256-.014 1.682-.101.425-.279.661-.48.777-.201.116-.495.152-.913.027-.42-.125-.918-.4-1.463-.829a8.7 8.7 0 01-.41-.343c.424-.451.844-.96 1.248-1.518zm-1.33.09c-.21.258-.42.5-.632.726a13.781 13.781 0 01-.633-.726 19.437 19.437 0 001.265 0zM4.97 9.75c.106.184.215.365.325.543a13.839 13.839 0 01-.946-.185c.09-.296.195-.6.314-.91.098.183.2.368.307.552zm1.069 1.65a15.737 15.737 0 01-1.939-.323 8.72 8.72 0 00-.093.526c-.099.687-.088 1.256.014 1.682.101.425.279.661.48.777.201.116.495.152.913.027.42-.125.918-.4 1.463-.829.135-.106.272-.22.41-.343a15.73 15.73 0 01-1.248-1.518zM4.075 8a15.72 15.72 0 00-.69 1.84 8.704 8.704 0 01-.503-.183c-.643-.257-1.13-.552-1.45-.853C1.117 8.504 1 8.232 1 8c0-.232.116-.504.433-.804.318-.301.806-.596 1.45-.853.159-.064.327-.125.502-.183.179.593.41 1.21.69 1.84zm.587-1.197a13.83 13.83 0 01-.314-.911c.302-.07.617-.132.946-.185a19.452 19.452 0 00-.632 1.096zM9.25 8a1.25 1.25 0 11-2.5 0 1.25 1.25 0 012.5 0z" clip-rule="evenodd"/></g><defs><clipPath id="clip0_872_3183"><path fill="#fff" d="M0 0h16v16H0z"/></clipPath></defs></svg>