<svg stroke-linejoin="round" data-testid="geist-icon" viewBox="0 0 16 16"><path fill="white" fill-rule="evenodd" d="M15.557 15.081l-.488-.57-2.56-2.987a6.748 6.748 0 002.028-3.337l.187-.726-1.452-.374-.187.726a5.248 5.248 0 01-1.553 2.572l-1.14-1.33A3.49 3.49 0 0011.5 6.5v-3a3.5 3.5 0 00-6.82-1.11L3.07.512l-.489-.57L1.442.92l.489.57 12 14 .488.569 1.138-.977zM6 3.931V3.5a2 2 0 114 0v3c0 .551-.222 1.051-.586 1.414L6 3.931zM1.463 8.187l-.187-.726 1.452-.374.187.726A5.253 5.253 0 008 11.75h.75V16h-1.5v-2.791a6.756 6.756 0 01-5.787-5.022z" clip-rule="evenodd"/></svg>