<svg stroke-linejoin="round" data-testid="geist-icon" viewBox="0 0 16 16"
width={16}
height={16}><path fill="white" fill-rule="evenodd" d="M8.501 1.5h-1a1.5 1.5 0 00-1.5 1.5v4a1.5 1.5 0 001.5 1.5h1a1.5 1.5 0 001.5-1.5V3a1.5 1.5 0 00-1.5-1.5zm-1-1.5a3 3 0 00-3 3v4a3 3 0 003 3h1a3 3 0 003-3V3a3 3 0 00-3-3h-1zm-.25 13.209V16h1.5v-2.791a6.756 6.756 0 005.787-5.022l.187-.726-1.452-.374-.187.726a5.252 5.252 0 01-10.17 0l-.187-.726-1.452.374.187.726a6.756 6.756 0 005.787 5.022z" clip-rule="evenodd"/></svg>