<svg stroke-linejoin="round" data-testid="geist-icon" viewBox="0 0 16 16"
width={16}
height={16}><path fill="white" fill-rule="evenodd" d="M2.47 3.53l.078.079A6.982 6.982 0 001.29 6h1.585A5.518 5.518 0 016 2.875V1.29a6.982 6.982 0 00-2.391 1.258L3.53 2.47 2.03.97 1.5.44.44 1.5l.53.53 1.5 1.5zM7.98 15h.04-.04zm5.472-2.609A6.983 6.983 0 0014.71 10h-1.585A5.517 5.517 0 0110 13.125v1.585a6.981 6.981 0 002.391-1.258l.079.078 1.5 1.5.53.53 1.06-1.06-.53-.53-1.5-1.5-.078-.079zm0-8.782A6.98 6.98 0 0114.71 6h-1.585A5.518 5.518 0 0010 2.875V1.29a6.982 6.982 0 012.391 1.258l.079-.078 1.5-1.5.53-.53 1.06 1.06-.53.53-1.5 1.5-.078.079zM1.29 10h1.585A5.518 5.518 0 006 13.125v1.585a6.98 6.98 0 01-2.391-1.258l-.079.078-1.5 1.5-.53.53L.44 14.5l.53-.53 1.5-1.5.078-.079A6.982 6.982 0 011.29 10zM8 10a2 2 0 100-4 2 2 0 000 4z" clip-rule="evenodd"/></svg>