<svg stroke-linejoin="round" data-testid="geist-icon" viewBox="0 0 16 16"><path fill="white" fill-rule="evenodd" d="M3.25 3.25a1 1 0 11-2 0 1 1 0 012 0zm-1 2.25c.411 0 .797-.11 1.128-.303l4.238 3.296.384.299.384-.299 4.238-3.296a2.25 2.25 0 10-.868-.908L8 7.209l-3.754-2.92A2.25 2.25 0 102.25 5.5zm1 7.25a1 1 0 11-2 0 1 1 0 012 0zm-1 2.25a2.25 2.25 0 00.625-4.412V7h-1.25v3.588A2.251 2.251 0 002.25 15zm11.5-10.75a1 1 0 100-2 1 1 0 000 2zm1 8.5a1 1 0 11-2 0 1 1 0 012 0zm-1 2.25a2.25 2.25 0 00.625-4.412V7h-1.25v3.588A2.251 2.251 0 0013.75 15z" clip-rule="evenodd"/></svg>