<svg stroke-linejoin="round" data-testid="geist-icon" viewBox="0 0 16 16"
width={16}
height={16}><path fill="white" fill-rule="evenodd" d="M13.5 1.5h-11v12a1 1 0 001 1h9a1 1 0 001-1v-12zM2.5 0H1v13.5A2.5 2.5 0 003.5 16h9a2.5 2.5 0 002.5-2.5V0H2.5zm2.75 10.5a1.25 1.25 0 102.5 0 1.25 1.25 0 00-2.5 0zM6.5 13a2.5 2.5 0 111.245-4.668V3.5l1.123-.376.002.001.01.013.044.055a7.273 7.273 0 00.803.839c.549.486 1.15.843 1.653.843h.625v1.25h-.625c-.943 0-1.803-.575-2.385-1.073v5.288A2.5 2.5 0 016.5 13z" clip-rule="evenodd"/></svg>