<svg stroke-linejoin="round" data-testid="geist-icon" viewBox="0 0 16 16"><path fill="white" fill-rule="evenodd" d="M6.81 1.25l-.53.53-.495.496 7.397 3.48.538-.536.53-.53 1.06 1.06-.53.53L11.06 10l4.22 4.22.53.53-1.06 1.06-.53-.53L10 11.06l-3.72 3.72-.53.53-1.06-1.06.53-.53.537-.538-3.481-7.397-.496.495-.53.53L.19 5.75l.53-.53 1.237-1.238a.743.743 0 01.025-.025l1.975-1.975a.743.743 0 01.025-.025L5.22.72l.53-.53 1.06 1.06zM4.659 3.403L3.403 4.658l3.481 7.397L8.94 10 10 8.94l2.055-2.056-7.397-3.481z" clip-rule="evenodd"/></svg>