<svg stroke-linejoin="round" data-testid="geist-icon" viewBox="0 0 16 16"><path fill="white" fill-rule="evenodd" d="M4.022 4.77a5.25 5.25 0 017.956 0L14.76 8l-1.094 1.27 1.027 1.106 1.625-1.887v-.978l-3.203-3.72C10.422.663 5.578.663 2.885 3.79L-.318 7.51v.978l3.203 3.72a6.748 6.748 0 007.197 2.02l-1.164-1.254a5.24 5.24 0 01-4.896-1.744L1.24 8l2.782-3.23zM8 6a2 2 0 100 4 2 2 0 000-4zM4.5 8a3.5 3.5 0 116.535 1.744l3.015 3.246.51.55-1.1 1.02-.51-.55-2.928-3.153A3.5 3.5 0 014.5 8z" clip-rule="evenodd"/></svg>