<svg stroke-linejoin="round" data-testid="geist-icon" viewBox="0 0 16 16"
width={16}
height={16}><path fill="white" fill-rule="evenodd" d="M16 7.945a7.001 7.001 0 00-4.262-6.444H15v-1.5h-4.925a1 1 0 00-1 1v4.925h1.5V2.674A5.5 5.5 0 019 13.445h-.75v1.5H9a7 7 0 007-7zM5.37 5.628c-.896 0-1.623.726-1.623 1.622v2.13a1.622 1.622 0 103.245 0V7.25c0-.896-.726-1.622-1.622-1.622zM4.992 7.25a.378.378 0 01.755 0v2.13a.377.377 0 11-.755 0V7.25zm-2.75-.877a.623.623 0 00-.773-.604l-1 .25-.604.151.302 1.208.604-.151.227-.057v2.58h-1v1.245h3.245V9.75h-1V6.373z" clip-rule="evenodd"/></svg>