<svg stroke-linejoin="round" data-testid="geist-icon" viewBox="0 0 16 16"><path fill="white" fill-rule="evenodd" d="M5.71 1.742l.626-.415A7.966 7.966 0 0110.75 0c1.63 0 3.149.488 4.414 1.327l.626.415-.83 1.25-.624-.414A6.466 6.466 0 0010.75 1.5a6.466 6.466 0 00-3.586 1.078l-.625.414-.828-1.25zM11.25 8V6h-1.5v2H0v5.5A2.5 2.5 0 002.5 16h11a2.5 2.5 0 002.5-2.5V8h-4.75zM1.5 9.5h13v4a1 1 0 01-1 1h-11a1 1 0 01-1-1v-4zm2.25 3a.75.75 0 100-1.5.75.75 0 000 1.5zM7 11.75a.75.75 0 11-1.5 0 .75.75 0 011.5 0zm1.397-8.163l-.662.354.707 1.323.661-.354c.49-.261 1.05-.41 1.647-.41s1.157.149 1.647.41l.661.354.707-1.323-.662-.354A4.981 4.981 0 0010.75 3c-.85 0-1.651.212-2.353.587z" clip-rule="evenodd"/></svg>