<svg stroke-linejoin="round" data-testid="geist-icon" viewBox="0 0 16 16"><path fill="white" fill-rule="evenodd" d="M7.53.72L7 .19 5.94 1.25l.53.53.22.22H3.374a3.375 3.375 0 000 6.75h9.25a1.875 1.875 0 010 3.75h-7.74a2.501 2.501 0 100 1.5h7.74a3.375 3.375 0 100-6.75h-9.25a1.875 1.875 0 010-3.75h3.314l-.22.22-.53.53L7 5.31l.53-.53 1.324-1.323a1 1 0 000-1.414L7.53.72zM2.5 14.25a1 1 0 100-2 1 1 0 000 2zm12-11.5a1 1 0 11-2 0 1 1 0 012 0zm1.5 0a2.5 2.5 0 11-5 0 2.5 2.5 0 015 0z" clip-rule="evenodd"/></svg>