<svg stroke-linejoin="round" data-testid="geist-icon" viewBox="0 0 16 16"><path fill="white" fill-rule="evenodd" d="M11 3.75a1.25 1.25 0 102.5 0 1.25 1.25 0 00-2.5 0zM9.848 5.09a2.75 2.75 0 111.06 1.06l-4.756 4.76a2.75 2.75 0 11-1.06-1.06l4.756-4.76zM2.5 12.25a1.25 1.25 0 102.5 0 1.25 1.25 0 00-2.5 0zM3.75 5a1.25 1.25 0 110-2.5 1.25 1.25 0 010 2.5zM1 3.75a2.75 2.75 0 105.5 0 2.75 2.75 0 00-5.5 0zm10 8.5a1.25 1.25 0 102.5 0 1.25 1.25 0 00-2.5 0zM12.25 15a2.75 2.75 0 110-5.5 2.75 2.75 0 010 5.5z" clip-rule="evenodd"/></svg>