<svg stroke-linejoin="round" data-testid="geist-icon" viewBox="0 0 16 16"><path fill="white" fill-rule="evenodd" d="M13.5 1.5h-11v3a1 1 0 001 1h9a1 1 0 001-1v-3zM15 0H1v4.5A2.5 2.5 0 003.5 7h9A2.5 2.5 0 0015 4.5V0zM2.5 13.5v-3h11v3a1 1 0 01-1 1h-9a1 1 0 01-1-1zM1 9h14v4.5a2.5 2.5 0 01-2.5 2.5h-9A2.5 2.5 0 011 13.5V9zm3.75 4.25a.75.75 0 100-1.5.75.75 0 000 1.5zM8 12.5a.75.75 0 11-1.5 0 .75.75 0 011.5 0zm2.5-9a.75.75 0 101.5 0 .75.75 0 00-1.5 0zm-1.75.75a.75.75 0 110-1.5.75.75 0 010 1.5z" clip-rule="evenodd"/></svg>