<svg stroke-linejoin="round" data-testid="geist-icon" viewBox="0 0 16 16"><path fill="white" fill-rule="evenodd" d="M7.7 1.736l.045-.236h.51l.044.236a2.024 2.024 0 001.334 1.536c.19.066.375.143.554.23.618.301 1.398.29 2.03-.143l.199-.136.36.361-.135.199a2.024 2.024 0 00-.143 2.03c.087.179.164.364.23.554.224.65.783 1.192 1.536 1.334l.236.044v.51l-.236.044a2.024 2.024 0 00-1.536 1.334 4.95 4.95 0 01-.23.554 2.024 2.024 0 00.143 2.03l.136.199-.361.36-.199-.135a2.024 2.024 0 00-2.03-.143 4.95 4.95 0 01-.554.23 2.024 2.024 0 00-1.334 1.536l-.044.236h-.51l-.044-.236a2.024 2.024 0 00-1.334-1.536 4.952 4.952 0 01-.554-.23 2.024 2.024 0 00-2.03.143l-.199.136-.36-.361.135-.199a2.024 2.024 0 00.143-2.03 4.957 4.957 0 01-.23-.554 2.024 2.024 0 00-1.536-1.334L1.5 8.255v-.51l.236-.044a2.024 2.024 0 001.536-1.334 4.96 4.96 0 01.23-.554 2.024 2.024 0 00-.143-2.03l-.136-.199.361-.36.199.135a2.024 2.024 0 002.03.143c.179-.087.364-.164.554-.23a2.024 2.024 0 001.334-1.536zM6.5 0h3l.274 1.46c.034.185.17.333.348.394.248.086.49.186.722.3.17.082.37.074.526-.033l1.226-.839 2.121 2.122-.838 1.226a.524.524 0 00-.033.526c.114.233.214.474.3.722.061.177.21.314.394.348L16 6.5v3l-1.46.274a.524.524 0 00-.394.348 6.47 6.47 0 01-.3.722.524.524 0 00.033.526l.838 1.226-2.12 2.121-1.227-.838a.524.524 0 00-.526-.033 6.477 6.477 0 01-.722.3.524.524 0 00-.348.394L9.5 16h-3l-.274-1.46a.524.524 0 00-.348-.394 6.477 6.477 0 01-.722-.3.524.524 0 00-.526.033l-1.226.838-2.122-2.12.84-1.227a.524.524 0 00.032-.526 6.453 6.453 0 01-.3-.722.524.524 0 00-.394-.348L0 9.5v-3l1.46-.274a.524.524 0 00.394-.348c.086-.248.186-.49.3-.722a.524.524 0 00-.033-.526l-.839-1.226 2.122-2.122 1.226.84a.524.524 0 00.526.032 6.46 6.46 0 01.722-.3.524.524 0 00.348-.394L6.5 0zm3 8a1.5 1.5 0 11-3 0 1.5 1.5 0 013 0zM11 8a3 3 0 11-6 0 3 3 0 016 0z" clip-rule="evenodd"/></svg>