<svg stroke-linejoin="round" data-testid="geist-icon" viewBox="0 0 16 16"><path fill="white" fill-rule="evenodd" d="M9.5 0h-3l-.274 1.46a.524.524 0 01-.348.394 6.46 6.46 0 00-.722.3.524.524 0 01-.526-.033l-1.226-.839-2.122 2.122.84 1.226a.524.524 0 01.032.526 6.459 6.459 0 00-.3.722.524.524 0 01-.394.348L0 6.5v3l1.46.274c.185.034.333.17.394.348.086.248.186.49.3.722.082.17.074.37-.033.526l-.839 1.226 2.122 2.121 1.226-.838a.524.524 0 01.526-.033c.233.114.474.214.722.3.177.061.314.21.348.394L6.5 16h3l.274-1.46a.524.524 0 01.348-.394c.248-.086.49-.186.722-.3a.524.524 0 01.526.033l1.226.838 2.121-2.12-.838-1.227a.524.524 0 01-.033-.526 6.47 6.47 0 00.3-.722.524.524 0 01.394-.348L16 9.5v-3l-1.46-.274a.524.524 0 01-.394-.348 6.477 6.477 0 00-.3-.722.524.524 0 01.033-.526l.838-1.226-2.12-2.122-1.227.84a.524.524 0 01-.526.032 6.46 6.46 0 00-.722-.3.524.524 0 01-.348-.394L9.5 0zM8 11a3 3 0 100-6 3 3 0 000 6z" clip-rule="evenodd"/></svg>