<svg stroke-linejoin="round" data-testid="geist-icon" viewBox="0 0 16 16"
width={16}
height={16}><path fill="white" fill-rule="evenodd" d="M3.5 4.057v5.47a3.75 3.75 0 002.01 3.322L8 14.153l2.49-1.304a3.75 3.75 0 002.01-3.322v-5.47c-.19-.053-.393-.106-.607-.162a74.86 74.86 0 01-.459-.12c-.586-.157-1.23-.344-1.823-.605C9.027 2.914 8.443 2.565 8 2.057c-.443.508-1.027.857-1.611 1.113-.593.26-1.237.448-1.823.605l-.46.12-.606.162zM7.25 0c0 .467-.145.797-.372 1.061-.242.282-.608.523-1.092.736-.482.212-1.032.375-1.608.529l-.409.107c-.432.113-.874.228-1.256.355L2 2.96V9.527a5.25 5.25 0 002.814 4.65l2.838 1.487.348.183.348-.183 2.838-1.486A5.25 5.25 0 0014 9.528V2.96l-.513-.172c-.382-.127-.824-.242-1.256-.355a67.533 67.533 0 01-.409-.107c-.575-.154-1.126-.317-1.608-.53-.484-.212-.85-.453-1.092-.735C8.895.797 8.75.467 8.75 0h-1.5z" clip-rule="evenodd"/></svg>