<svg stroke-linejoin="round" data-testid="geist-icon" viewBox="0 0 16 16"><path fill="white" fill-rule="evenodd" d="M13.25 1.25L6.051 4.725a.25.25 0 01-.108.025H4.177L1.335 3.33l-.67-.336-.671 1.341.67.336 14 7 .671.335.671-1.341-.67-.336-2.086-1.043V1.25zM3 11.25h2.943a.25.25 0 01.109.025l7.198 3.475v-1.5L2.76 8h-.01v3c0 .138.112.25.25.25z" clip-rule="evenodd"/><path fill="white" d="M6.051 4.725l-.326-.675.327.675zM13.25 1.25H14V.055l-1.076.52.326.675zm-9.073 3.5l-.335.67L4 5.5h.177v-.75zM1.335 3.33l.336-.672-.336.671zm-.67-.336L1 2.323l-.67-.335-.336.67.67.336zm-.671 1.341L-.677 4l-.335.67.67.336.336-.67zm.67.336L1 4l-.335.67zm14 7L15 11l-.335.67zm.671.335l-.335.671.67.335.336-.67-.67-.336zm.671-1.341l.671.335.335-.67-.67-.336-.336.67zm-.67-.336l.335-.67-.336.67zM13.25 9.286h-.75v.464l.415.207.335-.67zm-7.199 1.989l.327-.676-.327.676zm7.199 3.475l-.326.675 1.076.52V14.75h-.75zm0-1.5H14v-.463l-.414-.208-.336.671zM2.76 8l.336-.67-.159-.08H2.76V8zm-.01 0v-.75H2V8h.75zm3.628-2.6l7.198-3.475-.652-1.35L5.725 4.05l.653 1.35zm-.435.1a1 1 0 00.435-.1l-.653-1.35A.5.5 0 015.943 4v1.5zm-1.766 0h1.766V4H4.177v1.5zm.335-1.42L1.671 2.657 1 4l2.842 1.42.67-1.34zM1.671 2.657L1 2.323.33 3.665 1 4l.67-1.342zm-1.677 0L-.677 4l1.342.67.67-1.34-1.341-.672zm-.336 2.348l.671.336L1 4l-.67-.335-.672 1.341zm.671.336l14 7L15 11 1 4 .33 5.342zm14 7l.671.335.67-1.342L15 11l-.67 1.342zm1.677 0L16.677 11l-1.342-.67-.67 1.34 1.341.672zm.336-2.348l-.671-.336L15 11l.67.335.672-1.341zm-.671-.336l-2.086-1.042-.67 1.341L15 11l.67-1.342zM12.5 1.25v8.036H14V1.25h-1.5zM5.943 10.5H3V12h2.943v-1.5zm.435.1a1 1 0 00-.435-.1V12a.5.5 0 01-.218-.05l.653-1.35zm7.198 3.475l-7.198-3.476-.653 1.351 7.199 3.475.652-1.35zM12.5 13.25v1.5H14v-1.5h-1.5zM2.424 8.67l10.49 5.25.672-1.34-10.49-5.25-.672 1.34zm.326.08h.01v-1.5h-.01v1.5zM3.5 11V8H2v3h1.5zm-.5-.5a.5.5 0 01.5.5H2a1 1 0 001 1v-1.5z"/></svg>