<svg stroke-linejoin="round" data-testid="geist-icon" viewBox="0 0 16 16"><path fill="white" fill-rule="evenodd" d="M0 5v6a1 1 0 001 1h2l7 4V0L3 4H1a1 1 0 00-1 1zm14.258-2.04l.415.626A7.966 7.966 0 0116 8c0 1.63-.488 3.149-1.327 4.414l-.415.626-1.25-.83.415-.624A6.467 6.467 0 0014.5 8a6.466 6.466 0 00-1.078-3.586l-.414-.625 1.25-.828zM12.06 4.986l.354.662C12.787 6.349 13 7.15 13 8c0 .85-.212 1.651-.588 2.353l-.353.662-1.323-.707.353-.661c.262-.49.411-1.05.411-1.647s-.149-1.157-.41-1.647l-.354-.661 1.323-.707z" clip-rule="evenodd"/></svg>