<svg stroke-linejoin="round" data-testid="geist-icon" viewBox="0 0 16 16"><g clip-path="url(#clip0_4759_1908)"><circle cx="13.5" cy="2.5" r="2.5" fill="#52a8ff"/><path fill="white" fill-rule="evenodd" d="M10 .562V-.25H6v1.5h1.25v.79a6.967 6.967 0 00-3.641 1.508L3.03 2.97l-.53-.53L1.44 3.5l.53.53.578.579a7 7 0 1011.943 1.767 4.007 4.007 0 01-1.616.075 5.5 5.5 0 11-3.17-2.682 3.996 3.996 0 01-.191-1.605 6.983 6.983 0 00-.764-.124v-.79h.95c.078-.24.18-.47.3-.688zM8.75 6v3.75h-1.5V6h1.5z" clip-rule="evenodd"/></g><defs><clipPath id="clip0_4759_1908"><path fill="#fff" d="M0 0h16v16H0z"/></clipPath></defs></svg>