<svg stroke-linejoin="round" data-testid="geist-icon" viewBox="0 0 16 16"><path fill="white" fill-rule="evenodd" d="M13.75 1.9a2.5 2.5 0 00-1.92-.9H4.17a2.5 2.5 0 00-1.92.9L1.08 3.305a2.5 2.5 0 00-.58 1.6V15h15V4.905a2.5 2.5 0 00-.58-1.6L13.75 1.9zM14 5v-.095a1 1 0 00-.232-.64l1.152-.96-1.152.96-1.17-1.405a1 1 0 00-.769-.36H4.171a1 1 0 00-.768.36L2.232 4.265a1 1 0 00-.232.64V5a1.5 1.5 0 103 0h1.5a1.5 1.5 0 103 0H11a1.5 1.5 0 003 0zm0 2.599A2.986 2.986 0 0112.5 8c-.896 0-1.7-.393-2.25-1.016A2.993 2.993 0 018 8c-.896 0-1.7-.393-2.25-1.016A2.993 2.993 0 013.5 8 2.986 2.986 0 012 7.599V13.5h4V12a2 2 0 114 0v1.5h4V7.599zM8.5 12v1.5h-1V12a.5.5 0 011 0z" clip-rule="evenodd"/></svg>