<svg stroke-linejoin="round" data-testid="geist-icon" viewBox="0 0 16 16"
width={16}
height={16}><g clip-path="url(#clip0_174_19347)"><path fill="white" fill-rule="evenodd" d="M13.81 13.5c.429-.453.805-.956 1.12-1.5H1.07a8.028 8.028 0 001.12 1.5h11.62zM15.938 9a7.946 7.946 0 01-.52 2H.582a7.947 7.947 0 01-.52-2h15.876zM16 8.064V8A8 8 0 100 8h16v.064zM3.335 14.5A7.964 7.964 0 008 16c1.74 0 3.352-.556 4.665-1.5h-9.33z" clip-rule="evenodd"/></g><defs><clipPath id="clip0_174_19347"><path fill="var(--ds-background-100)" d="M0 0h16v16H0z"/></clipPath></defs></svg>