<svg stroke-linejoin="round" data-testid="geist-icon" viewBox="0 0 16 16"><path fill="white" fill-rule="evenodd" d="M8.75.75V0h-1.5v2.75h1.5v-2zm2.432 3.007l.53-.53.354-.354.53-.53 1.06 1.06-.53.531-.353.354-.53.53-1.061-1.06zM8 10.5a2.5 2.5 0 100-5 2.5 2.5 0 000 5zM8 12a4 4 0 100-8 4 4 0 000 8zm5.25-4.75H16v1.5h-2.75v-1.5zm-12.5 0H0v1.5h2.75v-1.5h-2zm2.123 4.816l-.53.53 1.06 1.06.531-.53.354-.353.53-.53-1.06-1.061-.531.53-.354.354zm.884-7.248l-.53-.53-.354-.354-.53-.53 1.06-1.06.531.53.354.353.53.53-1.06 1.061zm8.309 8.309l.53.53 1.06-1.06-.53-.531-.353-.354-.53-.53-1.061 1.06.53.531.354.354zm-3.316.123V16h-1.5v-2.75h1.5z" clip-rule="evenodd"/></svg>