<svg stroke-linejoin="round" data-testid="geist-icon" viewBox="0 0 16 16"
width={16}
height={16}><path fill="white" fill-rule="evenodd" d="M6.895 13.76a.25.25 0 01-.395-.203V10.75A1.75 1.75 0 004.75 9H2.5V2.5h9.688c.574 0 1.074.39 1.213.947l1 4A1.25 1.25 0 0113.188 9H8.5v3.485a.25.25 0 01-.105.204l-1.5 1.071zM5 13.557c0 1.423 1.609 2.251 2.767 1.424l1.5-1.072A1.75 1.75 0 0010 12.486V10.5h3.188a2.75 2.75 0 002.668-3.417l-1-4A2.75 2.75 0 0012.188 1H1v9.5h3.75a.25.25 0 01.25.25v2.807z" clip-rule="evenodd"/></svg>