<svg stroke-linejoin="round" data-testid="geist-icon" viewBox="0 0 16 16"><path fill="white" fill-rule="evenodd" d="M5.75 0A3.25 3.25 0 002.5 3.25v.5A3.25 3.25 0 005.75 7h.5A3.25 3.25 0 009.5 3.75v-.5A3.25 3.25 0 006.25 0h-.5zM4 3.25c0-.966.784-1.75 1.75-1.75h.5C7.216 1.5 8 2.284 8 3.25v.5A1.75 1.75 0 016.25 5.5h-.5A1.75 1.75 0 014 3.75v-.5zm11.81 2.5l-.53.53-2.75 2.75a.75.75 0 01-1.06 0l-1-1-.53-.53L11 6.44l.53.53.47.47 2.22-2.22.53-.53 1.06 1.06zM1.5 13.17v1.33h9v-1.33a4.844 4.844 0 00-4.33-2.67h-.34a4.844 4.844 0 00-4.33 2.67zm-1.431-.484A6.344 6.344 0 015.829 9h.342a6.344 6.344 0 015.76 3.686l.069.15V16H0v-3.165l.069-.15z" clip-rule="evenodd"/></svg>