<svg stroke-linejoin="round" data-testid="geist-icon" viewBox="0 0 16 16"><path fill="white" fill-rule="evenodd" d="M2.5 3.25A3.25 3.25 0 015.75 0h.5A3.25 3.25 0 019.5 3.25v.5A3.25 3.25 0 016.25 7h-.5A3.25 3.25 0 012.5 3.75v-.5zM5.75 1.5A1.75 1.75 0 004 3.25v.5c0 .966.784 1.75 1.75 1.75h.5A1.75 1.75 0 008 3.75v-.5A1.75 1.75 0 006.25 1.5h-.5zM1.5 13.17c.825-1.68 2.213-2.67 4-2.67V9C2.973 9 1.083 10.49.069 12.686l-.069.15V16h5.5v-1.5h-4v-1.33zm8.591-2.953a1.81 1.81 0 00.873-.967h.072c.17.453.508.78.873.967.06.032.12.066.178.104a1.81 1.81 0 001.277.273l.035.062a1.81 1.81 0 00-.402 1.24 2.007 2.007 0 010 .208c-.02.41.095.867.402 1.24l-.035.062a1.81 1.81 0 00-1.277.273 1.98 1.98 0 01-.178.104 1.81 1.81 0 00-.873.967h-.072a1.81 1.81 0 00-.873-.967 1.972 1.972 0 01-.178-.104 1.81 1.81 0 00-1.277-.273l-.035-.062c.307-.373.423-.83.402-1.24a2.053 2.053 0 010-.208c.02-.41-.095-.867-.402-1.24l.035-.062c.478.08.932-.05 1.277-.273.058-.038.117-.072.178-.104zm4.313 1.19l.56-.541-1-1.732-.749.214a.548.548 0 01-.447-.076 3.252 3.252 0 00-.29-.168.548.548 0 01-.29-.349L12 8h-2l-.189.755a.548.548 0 01-.289.35c-.1.05-.196.107-.29.167a.547.547 0 01-.447.076l-.75-.214-1 1.732.561.542c.114.11.166.266.158.424a3.3 3.3 0 000 .336.547.547 0 01-.158.424l-.56.542 1 1.732.749-.214a.548.548 0 01.447.075c.094.061.19.117.29.168.141.072.25.196.29.35L10 16h2l.189-.755a.548.548 0 01.288-.35c.1-.05.197-.107.29-.168a.548.548 0 01.448-.075l.75.214 1-1.732-.561-.542a.547.547 0 01-.158-.424 3.225 3.225 0 000-.336.547.547 0 01.158-.424z" clip-rule="evenodd"/></svg>