<svg stroke-linejoin="round" data-testid="geist-icon" viewBox="0 0 16 16"><path fill="white" fill-rule="evenodd" d="M7.75 0A3.25 3.25 0 004.5 3.25v.5A3.25 3.25 0 007.75 7h.5a3.25 3.25 0 003.25-3.25v-.5A3.25 3.25 0 008.25 0h-.5zM6 3.25c0-.966.784-1.75 1.75-1.75h.5c.966 0 1.75.784 1.75 1.75v.5A1.75 1.75 0 018.25 5.5h-.5A1.75 1.75 0 016 3.75v-.5zM2.5 14.5v-1.33a4.844 4.844 0 014.33-2.67h2.34a4.844 4.844 0 014.33 2.67v1.33h-11zM6.83 9a6.344 6.344 0 00-5.761 3.686l-.069.15V16h14v-3.165l-.069-.15A6.344 6.344 0 009.171 9H6.829z" clip-rule="evenodd"/></svg>