<svg stroke-linejoin="round" data-testid="geist-icon" viewBox="0 0 16 16"
width={16}
height={16}><path fill="white" fill-rule="evenodd" d="M0 1a1 1 0 011-1h14a1 1 0 011 1v9a1 1 0 01-1 1h-2.5V9.5h2v-8h-13v8h2V11H1a1 1 0 01-1-1V1zm8 13a3.454 3.454 0 00-2.874 1.538l-.126.19V16H3.5v-.727l.126-.189.252-.378a4.954 4.954 0 018.244 0l.252.378.126.189V16H11v-.273l-.126-.189A3.454 3.454 0 008 14zm-.25-8A2.25 2.25 0 005.5 8.25v.5A2.25 2.25 0 007.75 11h.5a2.25 2.25 0 002.25-2.25v-.5A2.25 2.25 0 008.25 6h-.5zM7 8.25a.75.75 0 01.75-.75h.5a.75.75 0 01.75.75v.5a.75.75 0 01-.75.75h-.5A.75.75 0 017 8.75v-.5z" clip-rule="evenodd"/></svg>