<svg stroke-linejoin="round" data-testid="geist-icon" viewBox="0 0 16 16"
width={16}
height={16}><path fill="white" fill-rule="evenodd" d="M2.5 3.25A3.25 3.25 0 015.75 0h.5A3.25 3.25 0 019.5 3.25v.5A3.25 3.25 0 016.25 7h-.5A3.25 3.25 0 012.5 3.75v-.5zM5.75 1.5A1.75 1.75 0 004 3.25v.5c0 .966.784 1.75 1.75 1.75h.5A1.75 1.75 0 008 3.75v-.5A1.75 1.75 0 006.25 1.5h-.5zm-4.25 13v-1.33a4.844 4.844 0 014.33-2.67h.34a4.844 4.844 0 014.33 2.67v1.33h-9zM5.83 9a6.344 6.344 0 00-5.761 3.686l-.069.15V16h12v-3.165l-.069-.15A6.344 6.344 0 006.171 9h-.342zm10.101 3.686a6.34 6.34 0 00-2.587-2.835l-.75 1.298a4.84 4.84 0 011.906 2.022V14.5h-1V16H16v-3.165l-.069-.15zM11.25 0h-.75v1.5h.75c.966 0 1.75.784 1.75 1.75v.5a1.75 1.75 0 01-1.75 1.75h-.75V7h.75a3.25 3.25 0 003.25-3.25v-.5A3.25 3.25 0 0011.25 0z" clip-rule="evenodd"/></svg>