<svg stroke-linejoin="round" data-testid="geist-icon" viewBox="0 0 16 16"><path fill="white" fill-rule="evenodd" d="M5.835 3.25a2.5 2.5 0 00.915 3.415l.645.372-.368.648L5.146 11a1.25 1.25 0 11-1.305-.74L5.39 7.532a4.001 4.001 0 116.2-1.266l-1.094-1.928a2.5 2.5 0 00-4.66-1.088zM9.146 5a1.25 1.25 0 10-1.305.74l1.882 3.316.373.657.654-.378a2.5 2.5 0 11.16 4.415H8.693a4 4 0 101.997-6.03L9.146 5zm4.104 6.5a1.25 1.25 0 01-2.25.75H7.93a4.001 4.001 0 11-4.255-4.737L2.581 9.441A2.5 2.5 0 106.5 11.5v-.75H11a1.25 1.25 0 012.25.75z" clip-rule="evenodd"/></svg>