<svg stroke-linejoin="round" data-testid="geist-icon" viewBox="0 0 16 16"><path fill="white" fill-rule="evenodd" d="M.75 1H0v10.5A2.5 2.5 0 002.5 14H6v-1.5H2.5a1 1 0 01-1-1v-9h13V7H16V1H.75zm3 4.5a.75.75 0 100-1.5.75.75 0 000 1.5zM7 4.75a.75.75 0 11-1.5 0 .75.75 0 011.5 0zm1.75.75a.75.75 0 100-1.5.75.75 0 000 1.5z" clip-rule="evenodd"/><g clip-path="url(#a)"><path fill="white" stroke="white" d="M9 12.5L12.5 7v3.5H15L11.5 16v-3.5H9z"/></g><defs><clipPath id="a"><path fill="#fff" d="M0 0h9v9H0z" transform="translate(7 7)"/></clipPath></defs></svg>