<svg stroke-linejoin="round" data-testid="geist-icon" viewBox="0 0 16 16"><path fill="white" fill-rule="evenodd" d="M.75 0H0v10.5A2.5 2.5 0 002.5 13h2.75v-1.5H2.5a1 1 0 01-1-1v-9h13V6H16V0H.75zm3 4.5a.75.75 0 100-1.5.75.75 0 000 1.5zM7 3.75a.75.75 0 11-1.5 0 .75.75 0 011.5 0zm1.75.75a.75.75 0 100-1.5.75.75 0 000 1.5zm.7 6H8.5V9h.95a2.25 2.25 0 012.114 1.481l.308.846 1.755-1.995a.75.75 0 11.35 1.117l-1.716 1.95.585 1.607a.75.75 0 00.705.494h.949V16h-.95a2.25 2.25 0 01-2.114-1.481l-.304-.837-1.815 2.062A.748.748 0 018.75 16a.75.75 0 11.282-1.445l1.71-1.944-.588-1.617a.75.75 0 00-.705-.494z" clip-rule="evenodd"/></svg>