<svg stroke-linejoin="round" data-testid="geist-icon" viewBox="0 0 16 16"
width={16}
height={16}><path fill="white" fill-rule="evenodd" d="M.75 0H0v10.5A2.5 2.5 0 002.5 13h2.75v-1.5H2.5a1 1 0 01-1-1v-9h13V6H16V0H.75zm3 4.5a.75.75 0 100-1.5.75.75 0 000 1.5zM7 3.75a.75.75 0 11-1.5 0 .75.75 0 011.5 0zm1.75.75a.75.75 0 100-1.5.75.75 0 000 1.5zm4.48 7.5c-.03.815-.136 1.628-.318 2.428a3.254 3.254 0 001.8-2.428H13.23zm-1.425 2.736a3.299 3.299 0 01-.61 0A12.24 12.24 0 0110.77 12h1.46a12.24 12.24 0 01-.425 2.736zM13.23 11a13.233 13.233 0 00-.319-2.428 3.254 3.254 0 011.8 2.428H13.23zm-1.001 0a12.24 12.24 0 00-.425-2.736 3.289 3.289 0 00-.61 0A12.24 12.24 0 0010.77 11h1.46zm-2.46 0c.03-.815.136-1.628.318-2.428A3.254 3.254 0 008.288 11H9.77zm.318 3.428c-.182-.8-.288-1.613-.319-2.428H8.29a3.254 3.254 0 001.799 2.428zM11.5 16a4.5 4.5 0 100-9 4.5 4.5 0 000 9z" clip-rule="evenodd"/></svg>