<svg stroke-linejoin="round" data-testid="geist-icon" viewBox="0 0 16 16"
width={16}
height={16}><path fill="white" fill-rule="evenodd" d="M.75 1H0v10.5A2.5 2.5 0 002.5 14h2.75v-1.5H2.5a1 1 0 01-1-1v-9h13V7H16V1H.75zm3 4.5a.75.75 0 100-1.5.75.75 0 000 1.5zM7 4.75a.75.75 0 11-1.5 0 .75.75 0 011.5 0zm1.75.75a.75.75 0 100-1.5.75.75 0 000 1.5z" clip-rule="evenodd"/><path fill="white" fill-rule="evenodd" d="M10.25 11h2.5V9.5a1.25 1.25 0 10-2.5 0V11zM9 11H8v3.65c0 .746.604 1.35 1.35 1.35h4.3A1.35 1.35 0 0015 14.65V11h-1V9.5a2.5 2.5 0 00-5 0V11z" clip-rule="evenodd"/></svg>