<svg stroke-linejoin="round" data-testid="geist-icon" viewBox="0 0 16 16"><path fill="white" d="M12.798 1.242l.53.53.729-.728-.917-.47-.342.668zm-2.84 2.84l-.531-.53.53.53zM6.583 6.957l.53.53.354-.353-.19-.462-.694.285zM1.5 12.04l.53.53-.53-.53zm0 2.5l-.53.53.53-.53zm2.5 0l.53.53-.53-.53zm5.101-5.102l.275-.697-.457-.18-.348.347.53.53zm5.684-6.183l.672-.333-.464-.936-.739.739.53.53zm-2.828 2.828l-.53-.53.53.53zm-1.414 0l.53-.53-.53.53zm-.586-.586l-.53.53.53-.53zm2.31-4.785l-2.84 2.84 1.06 1.061 2.841-2.84-1.06-1.061zM10.75 1.5c.616 0 1.195.148 1.706.41L13.14.574A5.231 5.231 0 0010.75 0v1.5zM7 5.25a3.75 3.75 0 013.75-3.75V0A5.25 5.25 0 005.5 5.25H7zm.278 1.421A3.737 3.737 0 017 5.25H5.5c0 .703.138 1.375.39 1.99l1.388-.569zm-1.224-.246L.97 11.51l1.06 1.06 5.085-5.084-1.06-1.06zM.97 11.51a2.518 2.518 0 000 3.56l1.06-1.06a1.018 1.018 0 010-1.44L.97 11.51zm0 3.56a2.518 2.518 0 003.56 0l-1.06-1.06a1.018 1.018 0 01-1.44 0L.97 15.07zm3.56 0L9.632 9.97l-1.06-1.06-5.102 5.1 1.06 1.061zM10.75 9c-.486 0-.95-.092-1.374-.26l-.55 1.396a5.238 5.238 0 001.924.364V9zm3.75-3.75A3.75 3.75 0 0110.75 9v1.5c2.9 0 5.25-2.35 5.25-5.25h-1.5zm-.387-1.662c.247.5.387 1.064.387 1.662H16c0-.834-.195-1.625-.543-2.328l-1.344.666zm-1.626 3.025l2.828-2.827-1.06-1.061-2.828 2.828 1.06 1.06zm-2.475 0a1.75 1.75 0 002.475 0l-1.06-1.06a.25.25 0 01-.354 0l-1.06 1.06zm-.585-.586l.585.586 1.061-1.06-.586-.586-1.06 1.06zm0-2.474a1.75 1.75 0 000 2.474l1.06-1.06a.25.25 0 010-.354l-1.06-1.06z"/></svg>